<?xml version="1.0" encoding="utf-8"?>
<!-- Generator: Adobe Illustrator 28.1.0, SVG Export Plug-In . SVG Version: 6.00 Build 0)  -->
<svg version="1.1" id="Calque_1" xmlns="http://www.w3.org/2000/svg" xmlns:xlink="http://www.w3.org/1999/xlink" x="0px" y="0px"
	 viewBox="0 0 750 500" style="enable-background:new 0 0 750 500;" xml:space="preserve">
<style type="text/css">
	.st0{fill:#407BFF;}
	.st1{opacity:0.9;fill:#DEF7E5;enable-background:new    ;}
	.st2{fill:#E0E0E0;}
	.st3{fill:#EBEBEB;}
	.st4{fill:#92E3A9;}
	.st5{fill:#E6E6E6;}
	.st6{fill:#F0F0F0;}
	.st7{fill:#FFFFFF;}
	.st8{fill:#F5F5F5;}
	.st9{fill:none;stroke:#E0E0E0;stroke-width:0.4521;stroke-linecap:round;stroke-linejoin:round;stroke-miterlimit:10;}
	.st10{fill:#263238;}
	.st11{opacity:0.6;fill:#FFFFFF;enable-background:new    ;}
	.st12{opacity:0.4;fill:#FFFFFF;enable-background:new    ;}
	.st13{opacity:0.2;enable-background:new    ;}
	.st14{fill:none;stroke:#407BFF;stroke-width:0.4521;stroke-miterlimit:10.0003;}
	.st15{fill:none;stroke:#407BFF;stroke-width:0.4521;stroke-miterlimit:10;}
	.st16{fill:none;stroke:#92E3A9;stroke-width:0.9043;stroke-miterlimit:10;}
	.st17{fill:none;stroke:#407BFF;stroke-width:0.4521;stroke-linecap:round;stroke-linejoin:round;stroke-miterlimit:10;}
	.st18{fill:#B97964;}
	.st19{fill:none;stroke:#263238;stroke-width:0.4521;stroke-linecap:round;stroke-linejoin:round;stroke-miterlimit:10;}
	.st20{opacity:0.7;fill:#FFFFFF;enable-background:new    ;}
	.st21{fill:#A24E3F;}
	.st22{fill:none;stroke:#263238;stroke-width:0.6782;stroke-linecap:round;stroke-linejoin:round;stroke-miterlimit:10;}
	
		.st23{opacity:0.2;fill:none;stroke:#000000;stroke-width:0.4521;stroke-linecap:round;stroke-linejoin:round;stroke-miterlimit:10;enable-background:new    ;}
	.st24{opacity:0.4;enable-background:new    ;}
	
		.st25{opacity:0.3;fill:none;stroke:#000000;stroke-width:0.2261;stroke-linecap:round;stroke-linejoin:round;stroke-miterlimit:10;enable-background:new    ;}
	.st26{opacity:0.5;enable-background:new    ;}
	.st27{opacity:0.8;fill:#FFFFFF;enable-background:new    ;}
	.st28{opacity:0.3;}
	.st29{opacity:0.2;fill:#FFFFFF;enable-background:new    ;}
	.st30{opacity:0.3;enable-background:new    ;}
	
		.st31{opacity:0.6;fill:none;stroke:#000000;stroke-width:0.4521;stroke-linecap:round;stroke-linejoin:round;stroke-miterlimit:10;enable-background:new    ;}
	.st32{fill:#EBB373;}
	.st33{fill:#DC5753;}
	.st34{fill:#E4873E;}
	.st35{fill:none;stroke:#263238;stroke-width:0.4521;stroke-miterlimit:10;}
	
		.st36{opacity:0.1;fill:none;stroke:#000000;stroke-width:0.4521;stroke-linecap:round;stroke-linejoin:round;stroke-miterlimit:10;enable-background:new    ;}
</style>
<g id="Background_simple">
	<g>
		<path class="st0" d="M246.7,147.4c-24.4,22.5-44.7,49.3-58.4,79.3c-16.2,35.4-26.6,80.8,4.8,110.1c58.1,54.2,132.6,6.5,146.6,59.5
			c15.9,60.1,65.3,110.2,150.7,76.6C652.5,409.2,706.1,117.4,593,51.7C522.6,10.8,376.5,28,246.7,147.4z"/>
		<path class="st1" d="M246.7,147.4c-24.4,22.5-44.7,49.3-58.4,79.3c-16.2,35.4-26.6,80.8,4.8,110.1c58.1,54.2,132.6,6.5,146.6,59.5
			c15.9,60.1,65.3,110.2,150.7,76.6C652.5,409.2,706.1,117.4,593,51.7C522.6,10.8,376.5,28,246.7,147.4z"/>
	</g>
</g>
<g id="Background_complete">
	<g>
		<g>
			<g>
				<g>
					<g>
						<g>
							<path class="st2" d="M631.7,395.5H468.3c-2.9,0-5.3-2.4-5.3-5.3V152.2c0-2.9,2.4-5.3,5.3-5.3h163.4c2.9,0,5.3,2.4,5.3,5.3
								v238.1C637,393.2,634.6,395.5,631.7,395.5z M468.3,147.1c-2.8,0-5.1,2.3-5.1,5.1v238.1c0,2.8,2.3,5.1,5.1,5.1h163.4
								c2.8,0,5.1-2.3,5.1-5.1V152.2c0-2.8-2.3-5.1-5.1-5.1L468.3,147.1L468.3,147.1z"/>
						</g>
					</g>
					<g>
						<g>
							<path class="st2" d="M443.2,395.5H279.8c-2.9,0-5.3-2.4-5.3-5.3V152.2c0-2.9,2.4-5.3,5.3-5.3h163.4c2.9,0,5.3,2.4,5.3,5.3
								v238.1C448.5,393.2,446.2,395.5,443.2,395.5z M279.8,147.1c-2.8,0-5.1,2.3-5.1,5.1v238.1c0,2.8,2.3,5.1,5.1,5.1h163.4
								c2.8,0,5.1-2.3,5.1-5.1V152.2c0-2.8-2.3-5.1-5.1-5.1L279.8,147.1L279.8,147.1z"/>
						</g>
					</g>
				</g>
				<g>
					<g>
						<g>
							<path class="st2" d="M254.9,395.5H91.4c-2.9,0-5.3-2.4-5.3-5.3V152.2c0-2.9,2.4-5.3,5.3-5.3h163.5c2.9,0,5.3,2.4,5.3,5.3
								v238.1C260.2,393.2,257.8,395.5,254.9,395.5z M91.4,147.1c-2.8,0-5.1,2.3-5.1,5.1v238.1c0,2.8,2.3,5.1,5.1,5.1h163.5
								c2.8,0,5.1-2.3,5.1-5.1V152.2c0-2.8-2.3-5.1-5.1-5.1L91.4,147.1L91.4,147.1z"/>
						</g>
					</g>
				</g>
			</g>
			<g>
				<g>
					<rect x="22.5" y="450.8" class="st2" width="678.2" height="0.1"/>
				</g>
			</g>
		</g>
		<g>
			<rect x="613.5" y="477.3" class="st3" width="50.4" height="0.4"/>
			<rect x="470.1" y="481.5" class="st3" width="13.2" height="0.4"/>
			<rect x="59.2" y="465.8" class="st3" width="65.7" height="0.4"/>
			<rect x="138.5" y="465.8" class="st3" width="9.6" height="0.4"/>
			<rect x="179.4" y="472.2" class="st3" width="142.5" height="0.4"/>
		</g>
	</g>
	<g id="freepik--tree-1--inject-2_00000093145981167557091850000010285804203180547725_">
		<path class="st4" d="M299.5,251c-1.5-0.9-3.2-1.3-4.9-1.2c-1.1-1.3-0.2-3.2,0.8-4.5s2.3-2.8,1.9-4.4c-0.6-2.4-4-2.5-6.5-2.1
			c-0.9-1.5-0.9-3.3-1.3-5c-0.4-1.7-1.9-3.5-3.5-3.2c-1.6,0.2-2.6,2-4.2,2.4c-1.9,0.4-3.5-1.2-4.9-2.4c-0.2-0.1-0.4-0.3-0.6-0.4l0,0
			c0.3-5.1,5.1-4.3,9.3-5c3.2-0.5-5.3-8.7,1.2-11.3c1.3-0.4,2.4-1.1,3.1-2.2c0.7-1.6,0.1-3.5-1.4-4.5c-1.5-0.9-3.2-1.3-4.9-1.2
			c-1.1-1.3-0.2-3.2,0.8-4.5s2.3-2.8,1.9-4.4c-0.6-2.4-4-2.5-6.5-2.1c-0.9-1.5-0.9-3.3-1.3-5c-0.4-1.7-1.9-3.5-3.5-3.2
			c-1.6,0.2-2.6,2-4.2,2.4c-1.9,0.4-3.5-1.2-4.9-2.4s-4-2-5-0.4c-0.6,0.9-0.2,2.3-0.9,3.2c-1.1,1.6-3.6,0.6-5.2-0.5
			s-4.1-2.2-5.2-0.6c-0.3,0.5-0.5,1.1-0.6,1.7c-0.1,0.4-0.4,0.8-0.6,1.2c-0.3-1.1-0.4-2.4-0.7-3.5c-0.4-1.7-1.9-3.5-3.5-3.2
			c-1.6,0.2-2.6,2-4.2,2.4c-1.9,0.4-3.5-1.2-4.9-2.4s-4-2-5-0.4c-0.6,0.9-0.2,2.3-0.9,3.2c-0.1,0.2-0.3,0.4-0.5,0.5
			c-0.6-0.1-1.1-0.1-1.6-0.1c-1.1-1.3-0.2-3.2,0.8-4.5c1-1.3,2.3-2.8,1.9-4.4c-0.6-2.4-4-2.5-6.5-2.1c-0.9-1.5-0.9-3.3-1.3-5
			c-0.4-1.7-1.9-3.5-3.5-3.2c-1.6,0.2-2.6,2-4.2,2.4c-1.9,0.4-3.5-1.2-4.9-2.4c-1.4-1.2-4-2-5-0.4c-0.6,0.9-0.2,2.3-0.9,3.2
			c-1.1,1.6-3.6,0.6-5.2-0.6c-1.6-1.2-4.1-2.2-5.2-0.6c-0.3,0.5-0.5,1.1-0.6,1.7c-0.8,2.2-3.1,3.2-4.9,4.6c-1.8,1.4-3.3,4.1-1.7,5.8
			c0.8,0.9,2.1,1.2,2.5,2.2c0.5,1.3-0.9,2.5-2,3.4c-1.4,1.6-1.8,3.8-1.1,5.8c-0.5,0.5-1.2,0.9-1.9,1.1c-1.9,0.4-3.5-1.2-4.9-2.4
			s-4-2-5-0.4c-0.6,0.9-0.2,2.3-0.9,3.2c-1.1,1.6-3.6,0.6-5.2-0.5c-1.6-1.2-4.1-2.2-5.2-0.6c-0.3,0.5-0.5,1.1-0.6,1.7
			c-0.8,2.2-3.1,3.2-4.9,4.6c-1.8,1.4-3.3,4.1-1.7,5.9c0.7,0.9,2,1.2,2.4,2.2c-1.3-0.5-2.8-0.4-3.4,0.6c-0.6,0.9-0.2,2.3-0.9,3.2
			c-1.1,1.6-3.6,0.6-5.2-0.5c-1.6-1.2-4.1-2.2-5.2-0.6c-0.3,0.5-0.5,1.1-0.6,1.7c-0.8,2.2-3.1,3.2-4.9,4.6c-1.8,1.4-3.3,4.2-1.7,5.9
			c0.8,0.8,2.1,1.2,2.5,2.2c0.5,1.3-0.9,2.5-2,3.4c-1.8,1.5-2.1,6.1,0.2,7.3c1,0.5,2.5,0.8,2.7,1.8s-0.8,1.8-1.4,2.5
			c-0.1,0.2-0.3,0.4-0.4,0.6c-1.2,2.3-0.4,5.1,1.9,6.4c0.6,0.3,1.3,0.5,1.5,1.1c0.1,0.4,0,0.9-0.1,1.3c-0.2,0.8-0.3,1.7-0.2,2.6
			c0,0.3,0.1,0.6,0.3,0.8c0.2,0.2,0.5,0.2,0.8,0.2c3.4,0.1,5.1-1.1,7.2,1.9c0.2,0.3,0.4,0.6,0.7,0.8c0.3,0.1,0.6,0.2,0.9,0.2
			c2.4,0.2,3.9-1.3,6-1.6c3-0.4,3.6,1.2,6.3,2.4c4.1,2,6.1,0.8,6.9-2.1c0.2-0.8,0.3-1.6,0.4-2.4c0-1.2,0.5-2.4,1.4-3.2h0.1
			c2.2,0.2,3.7-1.1,5.6-1.5l1.2-0.1c2.3,0,3.1,1.4,5.4,2.4c1.1,0.6,2.3,0.9,3.5,0.9c0.4,1.3-0.9,2.4-2,3.3c-1.8,1.5-2.1,6.1,0.3,7.3
			c1,0.5,2.5,0.8,2.7,1.8s-0.8,1.8-1.4,2.5c-0.1,0.2-0.3,0.4-0.4,0.6c-1.3,2.3-0.4,5.1,1.9,6.4c0.6,0.3,1.3,0.5,1.5,1.1
			c0.1,0.5,0.1,0.9-0.1,1.3c-0.2,0.8-0.3,1.7-0.2,2.5c0,0.3,0.1,0.6,0.3,0.8c0.2,0.1,0.5,0.2,0.8,0.2c3.4,0.1,5.1-1.1,7.2,1.9
			c0.2,0.3,0.4,0.6,0.7,0.8c0.3,0.1,0.6,0.2,0.9,0.2c2.4,0.2,3.9-1.3,6-1.5c3-0.4,3.6,1.2,6.2,2.4c4.1,1.9,6.1,0.8,6.9-2.1
			c0.2-0.8,0.3-1.6,0.4-2.5c0.3-5.1,5.1-4.3,9.3-5c0.3,0,0.6-0.2,0.7-0.5h0.3c2.4,0.2,3.9-1.3,6-1.5c3-0.4,3.6,1.2,6.3,2.4
			c4.1,2,6.1,0.8,6.9-2.1c0.2-0.8,0.3-1.6,0.4-2.5c0.3-4,3.2-4.3,6.5-4.6c0.1,1.6,1,3,2.4,3.7c0.6,0.3,1.3,0.5,1.5,1.1
			c0.1,0.5,0,0.9-0.1,1.3c-0.2,0.8-0.3,1.7-0.2,2.5c0,0.3,0.1,0.6,0.3,0.8c0.2,0.1,0.5,0.2,0.8,0.2c3.4,0.1,5.1-1.1,7.2,1.9
			c0.2,0.3,0.4,0.6,0.7,0.8c0.3,0.1,0.6,0.2,0.9,0.2c2.4,0.2,3.9-1.3,6-1.5c3-0.4,3.6,1.2,6.3,2.4c4.1,2,6.1,0.8,6.9-2.1
			c0.2-0.8,0.3-1.6,0.4-2.4c0.3-5.1,5.1-4.3,9.3-5c3.2-0.5-5.3-8.7,1.2-11.3c1.3-0.4,2.4-1.1,3.1-2.2
			C301.4,253.7,300.8,251.9,299.5,251z"/>
		<g>
			<path class="st2" d="M179.7,281.3c-1.2-0.8-2.7-1.1-4.1-1c-0.9-1.1-0.2-2.7,0.7-3.8c0.9-1.1,1.9-2.3,1.6-3.7
				c-0.5-2-3.3-2.1-5.4-1.7c-0.8-1.2-0.8-2.8-1.1-4.2s-1.5-2.9-2.9-2.7c-1.4,0.2-2.2,1.7-3.5,2c-1.5,0.4-2.9-1-4.1-2
				s-3.3-1.7-4.2-0.3c-0.5,0.8-0.2,1.9-0.7,2.7c-0.9,1.4-3,0.5-4.4-0.5c-1.3-1-3.4-1.9-4.4-0.5c-0.2,0.5-0.4,0.9-0.5,1.4
				c-0.6,1.8-2.6,2.7-4.1,3.9s-2.7,3.4-1.4,4.9c0.6,0.7,1.7,1,2.1,1.9c0.4,1.1-0.8,2.1-1.6,2.9c-1.5,1.3-1.8,5.1,0.2,6.1
				c0.8,0.4,2.1,0.6,2.3,1.5c0.2,0.9-0.6,1.5-1.1,2.1c-1.3,1.7-1,4.2,0.7,5.5c0.2,0.1,0.3,0.2,0.5,0.3c0.5,0.2,1.1,0.4,1.2,0.9
				c0.1,0.4,0.1,0.8-0.1,1.1c-0.2,0.7-0.2,1.4-0.2,2.1c0,0.2,0.1,0.5,0.2,0.7c0.2,0.1,0.4,0.2,0.6,0.2c2.9,0.1,4.2-0.9,6,1.6
				c0.1,0.2,0.4,0.5,0.6,0.6c0.2,0.1,0.5,0.2,0.8,0.2c2,0.2,3.2-1.1,5-1.3c2.5-0.3,3,1,5.2,2c3.4,1.6,5.1,0.6,5.7-1.7
				c0.2-0.7,0.3-1.4,0.3-2c0.2-4.2,4.3-3.6,7.7-4.1c2.7-0.5-4.4-7.2,1-9.4c1.1-0.3,2-0.9,2.6-1.8C181.5,283.7,181,282.1,179.7,281.3
				z"/>
		</g>
		<path class="st5" d="M232.2,257.9l4.4-14l8.6-11.1l-1.5-1.2l-8.1,8.9l-1.4-14h-2.4c0,0,1.9,16.7-0.9,22.8c0,0-10.1,25.7-16.2,31.2
			c-0.4,0.3-0.6,0.7-0.9,1.1c-1.8-4.7-4.2-9.2-7.1-13.4c2.4-6.2,7.6-19.9,9.4-27.1c1.4-5.7,2.4-11.4,3.1-17.2l-2-0.2
			c0,0-5.7,27-15.1,39.2c-2.8-2.6-6-4.7-9.4-6.3c-0.8-3.8-1.1-10.4,1.4-20.7l-2-0.5c0,0-3.8,8.7-3.5,19.2c-1.4-0.7-2.8-1.5-4.1-2.4
			c-9.1-6.4-15.5-18-15.5-18l-1.9,1.8c0,0,7.8,17.1,18.6,22.7c10.8,5.7,17.8,19.6,18.4,23.2c0.1,1,1.4,9.3-0.3,23.7
			c-11.5-4.9-34.3-18.4-35.8-19.7l-2.7,3.6l36.9,26.4c0.6,35.2-2.1,71.8-2,79.7h21.5c-0.5-10.9-5.1-52-3.1-95
			c0.2-1.1,0.4-2.3,0.5-3.7c1.7-13.2,11.7-31.2,16.4-36.3c5.1-5.5,10.8-9.8,10.8-9.8L245,248L232.2,257.9z"/>
	</g>
	<g>
		<path class="st6" d="M402.3,147.7c0-3.6-2.9-6.4-6.4-6.4l0,0c-0.6,0-1.2,0.1-1.8,0.3c0.1-0.7,0.1-1.3,0.1-2
			c0-7.5-6.1-13.7-13.7-13.7c-0.8,0-1.7,0.1-2.5,0.2c-3.4-5.6-10.8-7.4-16.4-4c-3.5,2.1-5.7,5.9-5.7,10h-0.2
			c-6.1,0.2-10.8,5.3-10.6,11.4c0.2,5.8,4.9,10.5,10.6,10.6H396C399.5,154.1,402.3,151.2,402.3,147.7z"/>
		<path class="st2" d="M491.1,203c0-3-2.5-5.5-5.5-5.5l0,0c-0.5,0-1.1,0.1-1.6,0.2c0.1-0.6,0.1-1.1,0.1-1.7
			c0-6.4-5.2-11.6-11.6-11.6c-0.7,0-1.4,0.1-2.1,0.2c-2.9-4.8-9.2-6.3-14-3.4c-3,1.8-4.8,5.1-4.9,8.5h-0.2c-5.2,0.2-9.2,4.5-9.1,9.7
			c0.2,4.9,4.1,8.9,9.1,9.1h34.4C488.7,208.4,491.1,206,491.1,203z"/>
		<path class="st7" d="M212.9,123.7c0-6.7-5.4-12.1-12.1-12.1l0,0c-1.2,0-2.4,0.2-3.5,0.5c0.2-1.2,0.3-2.5,0.3-3.7
			c0-14.2-11.5-25.7-25.7-25.7c-1.6,0-3.2,0.1-4.7,0.4c-6.5-10.6-20.3-14-30.9-7.5c-6.6,4-10.7,11.2-10.8,18.9h-0.4
			c-11.5,0.4-20.4,10-20.1,21.4c0.3,10.9,9.1,19.7,20.1,20.1h76.1C207.7,135.7,212.9,130.3,212.9,123.7z"/>
		<path class="st6" d="M625.6,148.9c0-2.7-2.2-4.9-5-4.9l0,0c-0.5,0-1,0.1-1.4,0.2c0.1-0.5,0.1-1,0.1-1.5c0-5.8-4.7-10.5-10.5-10.5
			c-0.7,0-1.3,0.1-1.9,0.2c-2.6-4.3-8.3-5.7-12.6-3.1c-2.7,1.6-4.3,4.6-4.4,7.7h-0.2c-4.7,0.1-8.3,4.1-8.2,8.7
			c0.1,4.4,3.7,8,8.2,8.2h31C623.5,153.8,625.6,151.6,625.6,148.9z"/>
		<path class="st2" d="M359.4,207.7c0-3.8-3.1-7-7-7l0,0c-0.7,0-1.3,0.1-2,0.3c0.1-0.7,0.1-1.4,0.1-2.1c0-8.1-6.6-14.8-14.8-14.8
			c-0.9,0-1.8,0.1-2.7,0.2c-3.7-6.1-11.6-8-17.7-4.3c-3.8,2.3-6.1,6.4-6.2,10.8H309c-6.6,0.2-11.7,5.7-11.5,12.3
			c0.2,6.3,5.2,11.3,11.5,11.5h43.6C356.5,214.5,359.5,211.4,359.4,207.7z"/>
		<g id="freepik--Streetlight--inject-81_00000097486167430927457230000003568555652760028844_">
			<path class="st2" d="M576.7,395.2h5.8V187.1c0-10.5-8.5-18.9-18.9-18.9h-5.2v5.8h5.2c7.2,0,13.1,5.9,13.1,13.1V395.2z"/>
			<path class="st3" d="M521.1,175.2h42l-1-6.3c-0.3-2.1-2-3.8-4.1-4.1c-2.8-0.4-6.4-0.9-8.1-0.9c-5-0.1-17.2,1.2-23.2,1.9
				c-2,0.2-3.7,1.7-4.2,3.7L521.1,175.2z"/>
			<path class="st8" d="M525.6,179.7h33.1c2.5,0,4.4-2,4.4-4.4l0,0h-42C521.1,177.7,523.1,179.7,525.6,179.7z"/>
			<line class="st9" x1="548.9" y1="188.9" x2="556.8" y2="207.5"/>
			<path class="st9" d="M541.2,188.9c0,10.7-0.7,19.6-0.7,30.4"/>
			<line class="st9" x1="534.6" y1="188.1" x2="523.1" y2="203.2"/>
		</g>
	</g>
</g>
<g id="Shadow">
	<g>
		<g>
			<path class="st8" d="M648.1,495.1c0,3.1-106.3,5.5-237.5,5.5s-237.5-2.5-237.5-5.5c0-3.1,106.3-5.5,237.5-5.5
				S648.1,492,648.1,495.1z"/>
		</g>
	</g>
</g>
<g id="Device">
	<g>
		<g>
			<g>
				<path class="st10" d="M162.5,378.9H83.6c-9.4,0-17-7.6-17-17V173.7c0-7.3,5.9-13.1,13.1-13.1h86.7c7.2,0,13.1,5.9,13.1,13.1
					v188.1C179.5,371.3,171.9,378.9,162.5,378.9z"/>
				<path class="st0" d="M146.4,165.5l-1.8,3.6h-44.2l-2.6-3.6H76.9c-3.3,0-6.1,2.7-6.1,6V364c0,5,4.1,9,9.2,9h86c5.1,0,9.1-4,9.1-9
					V171.5c0-3.3-2.7-6-6.1-6L146.4,165.5L146.4,165.5z"/>
				<circle class="st7" cx="121.2" cy="165.1" r="1.8"/>
				<path class="st7" d="M125.7,165.1c0,0.5-0.4,0.9-0.9,0.9s-0.9-0.4-0.9-0.9s0.4-0.9,0.9-0.9C125.2,164.2,125.7,164.6,125.7,165.1
					z"/>
			</g>
			<path class="st4" d="M169.1,165.5h-22.7l-1.8,3.6h-44.2l-2.6-3.6H76.9c-3.3,0-6.1,2.7-6.1,6v49.3h104.3v-49.3
				C175.2,168.2,172.5,165.5,169.1,165.5z"/>
		</g>
		<g id="freepik--Screen--inject-5_00000113330346380532542180000004843635342039758212_">
			<rect x="87.6" y="169.9" class="st11" width="1.4" height="1.8"/>
			<rect x="85.4" y="169.3" class="st11" width="1.4" height="2.4"/>
			<rect x="83.1" y="168.7" class="st11" width="1.4" height="3.1"/>
			<rect x="80.9" y="168.1" class="st11" width="1.4" height="3.7"/>
			<rect x="160.9" y="169.3" class="st11" width="0.8" height="1.8"/>
			<rect x="162.2" y="168.6" class="st11" width="6.5" height="3.2"/>
			<rect x="71" y="212.5" class="st12" width="104.2" height="154.3"/>
			<path class="st13" d="M175.1,236.2v-7.7l-24.5,22.6l-25.9-8.6l16.2-30h-6.5l-6.9,12.8l-50.2-12.8H71v4.1l18.9,4.8l-15.3,27
				l35.9,8.5l-4.3,7.9L71,255.9v5.8l32.5,8.1l-10.5,19.5l-16.6-4.7L71,288v6.7l6.3-4l12.9,3.6L71,329.9v12.1l12.6-23.2l17.1,4.9
				v21.2l34.8,22h11.4l-40.4-25.5v-16.1l68.7,19.5v-5.8l-20.5-5.8l6.3-33.3l14.3,3.6v-5.8l-38.5-9.7l17.1-31.8L175.1,236.2z
				 M83.2,244.7l12.4-21.8l29.2,7.4l-11.6,21.4L83.2,244.7z M155.3,298.2l-6.2,33.2l-62.8-17.8l17.6-32.5l6.7,7.2l21.1,4
				L155.3,298.2z M130.8,286.4l-17.2-3.3l-6.9-7.4l15.3-28.3l25.2,8.4L130.8,286.4z"/>
			<path class="st11" d="M157.1,203.9H96.6c-2.2,0-3.9-1.7-3.9-3.9c0,0,0,0,0,0l0,0c0-2.1,1.7-3.9,3.9-3.9c0,0,0,0,0,0h60.4
				c2.1,0,3.9,1.8,3.9,3.9c0,0,0,0,0,0l0,0C160.9,202.1,159.2,203.9,157.1,203.9z"/>
			<path class="st7" d="M88,197.2L88,197.2c-1.2-1.2-3.1-1.2-4.2,0l0,0c-1.1,1.2-1.1,3,0,4.2l2.1,2.1l2.1-2.1
				C89.1,200.3,89.1,198.4,88,197.2z M86.8,200.3c-0.5,0.5-1.4,0.5-1.9,0c-0.5-0.5-0.5-1.4,0-1.9c0.5-0.5,1.3-0.5,1.9,0
				C87.4,198.9,87.4,199.8,86.8,200.3C86.8,200.3,86.8,200.3,86.8,200.3L86.8,200.3z"/>
			<path class="st7" d="M151.2,330.3c-2.2,0-3.9,1.7-3.9,3.8s1.8,3.8,3.9,3.8s3.9-1.7,3.9-3.8l0,0
				C155.1,332,153.4,330.3,151.2,330.3z M151.2,336.5c-1.4,0-2.6-1.1-2.6-2.5c0-1.4,1.1-2.5,2.6-2.5c1.4,0,2.6,1.1,2.6,2.5l0,0
				C153.8,335.4,152.6,336.5,151.2,336.5z"/>
			<path class="st7" d="M152.8,334c0,0.8-0.7,1.5-1.6,1.5c-0.9,0-1.6-0.7-1.6-1.5s0.7-1.5,1.6-1.5
				C152.1,332.5,152.8,333.2,152.8,334L152.8,334z"/>
			<path class="st12" d="M137.8,225.8l-8.3,15.4l21.2,6.3l11.7-11.7C153.9,232.9,145.7,229.6,137.8,225.8z"/>
			<path class="st12" d="M175.1,212.5V223l-10.4,10.4c-7-2.4-13.8-5-20.5-8c-1.7-0.8-3.4-1.5-5-2.4l5.6-10.6L175.1,212.5
				L175.1,212.5z"/>
			<polygon class="st12" points="123.1,250.9 142.7,257.3 132.9,277.1 112.9,270.9 			"/>
			<path class="st12" d="M142.7,285c0.2-0.5,9.6-19.5,9.6-19.5l14.1,4.2l2.5,21.4L142.7,285z"/>
			<polygon class="st12" points="155.8,261.8 170.5,265.5 171.7,249.4 158.4,256.4 			"/>
			<path class="st12" d="M113.9,314.4c0.3-0.2,6.8-19.6,6.8-19.6l30.4,5.2l-5.1,25.9L113.9,314.4z"/>
			<path class="st12" d="M97.6,303.3l9.2,2.9l-4.6,8.2c0,0-9.7-2.1-9.7-2.8C92.5,311,97.6,303.3,97.6,303.3z"/>
			<path class="st12" d="M98.1,327.9c-0.2,0.5-5.8,38.8-5.8,38.8H71l0.6-13l12.9-28.6L98.1,327.9z"/>
			<path class="st12" d="M175.1,346.8V363l-23.3,0.9l-20.2-14.5c0,0,3.5-9.7,4.5-12.8L175.1,346.8z"/>
			<path class="st12" d="M133,335.7l-17.5-4.6l-2.5,8.3l15.8,8.3C128.9,347.7,133,336.5,133,335.7z"/>
			<polygon class="st12" points="175.1,313.6 175.1,331.3 159.1,327.9 162.3,311.2 			"/>
			<polygon class="st12" points="78.9,279.8 84,268.5 98.2,272.5 92.5,284.3 			"/>
			<polygon class="st12" points="91.8,240.6 98.8,228.4 117.8,233.7 111.5,246.8 			"/>
			<path class="st12" d="M129.8,212.5c-1.8,3.4-4,7.8-4.4,8.1s-23.9-5.5-34.2-8.1H129.8z"/>
			<polygon class="st12" points="84,224.8 71,251 71,221.5 			"/>
			<path class="st7" d="M152.8,329.5h-0.1c-0.4-0.1-0.7-0.5-0.7-0.9l5.7-31.5c-4-1.2-24.7-7.2-44.8-10.5c-0.2,0-0.3-0.1-0.5-0.2
				l-9.5-10c-0.2-0.2-0.3-0.6-0.1-0.9l11.1-20.6l-35-7.6c-0.4-0.1-0.7-0.5-0.6-1c0-0.1,0.1-0.1,0.1-0.2L90,225.4
				c0.2-0.4,0.7-0.5,1.1-0.3s0.5,0.7,0.3,1.1L80.2,246l35,7.6c0.4,0.1,0.7,0.5,0.6,0.9c0,0.1,0,0.1-0.1,0.2l-11.3,21l9,9.3
				c22.2,3.6,45.2,10.6,45.4,10.7c0.4,0.1,0.6,0.5,0.6,0.9l-5.8,32.2C153.5,329.2,153.2,329.5,152.8,329.5z"/>
		</g>
		<g>
			<g>
				<path class="st7" d="M94.5,215.1L94.5,215.1c-1.8-1.8-4.6-1.8-6.3,0c0,0,0,0,0,0l0,0c-1.7,1.8-1.7,4.6,0,6.3l3.2,3.2l3.2-3.2
					C96.2,219.6,96.2,216.8,94.5,215.1z M92.7,219.6c-0.8,0.8-2.1,0.8-2.8,0s-0.8-2.1,0-2.9c0.8-0.8,2.1-0.8,2.8,0l0,0
					C93.5,217.6,93.5,218.9,92.7,219.6z"/>
			</g>
			<path class="st7" d="M144.5,236.3h-37.3c-2.1,0-3.8-1.7-3.8-3.8v-12.2c0-2.1,1.7-3.8,3.8-3.8h37.3c2.1,0,3.8,1.7,3.8,3.8v12.2
				C148.3,234.6,146.6,236.3,144.5,236.3z"/>
			<g>
				<circle class="st0" cx="114" cy="223.4" r="2.7"/>
				<path class="st0" d="M114,226.4c-2.4,0-4.3,1.9-4.3,4.4h8.7C118.3,228.4,116.4,226.4,114,226.4z"/>
			</g>
			<g>
				<path class="st0" d="M126.1,226.1c1.5,0,2.7-1.2,2.7-2.7s-1.2-2.7-2.7-2.7s-2.7,1.2-2.7,2.7S124.6,226.1,126.1,226.1z"/>
				<path class="st0" d="M126.1,226.4c-2.4,0-4.3,1.9-4.3,4.4h8.7C130.5,228.4,128.5,226.4,126.1,226.4z"/>
			</g>
			<g>
				<ellipse class="st14" cx="138.3" cy="223.4" rx="2.7" ry="2.7"/>
				<path class="st15" d="M138.3,226.4c-2.4,0-4.4,1.9-4.4,4.4h8.7C142.6,228.4,140.7,226.4,138.3,226.4z"/>
			</g>
			<path class="st7" d="M105.6,216.5h-7.8c0,0,6.5,5.2,6.7,5.2S105.6,216.5,105.6,216.5z"/>
		</g>
		<path class="st12" d="M98.1,366.7c-0.7,0,5.3-12.8,5.2-13c-0.2-1,22,13,22,13H98.1z"/>
	</g>
</g>
<g id="GPS_Icon">
	<path class="st4" d="M359.5,188.4c13.5-13,35-12.6,48,0.9c12.6,13.1,12.6,33.9,0,47.1l-19.2,19.2c-2.7,2.7-7,2.7-9.6,0l-19.2-19.2
		C346.2,223.1,346.2,201.6,359.5,188.4z M383.5,228.2c9,0,16.1-7.5,15.7-16.5c-0.4-8-7-14.6-15-15c-9-0.4-16.5,6.8-16.5,15.7l0,0
		C367.7,221.1,374.8,228.1,383.5,228.2L383.5,228.2z"/>
	<g>
		<polyline class="st16" points="416.6,219.9 561.5,219.9 561.5,253.2 		"/>
		<circle class="st4" cx="561.5" cy="251.4" r="3.6"/>
	</g>
</g>
<g id="Speech_Bubble_2">
	<g>
		<g>
			<g>
				<g>
					<g>
						<g>
							
								<ellipse transform="matrix(0.8676 -0.4973 0.4973 0.8676 -21.4111 355.155)" class="st4" cx="656.2" cy="217.8" rx="18.2" ry="18.2"/>
						</g>
						<g>
							<polygon class="st4" points="644,225.3 639.4,224.8 637.5,230.4 643.3,230.1 							"/>
						</g>
					</g>
				</g>
				<path class="st17" d="M670.9,201.6c4.8,3.4,7.7,9.4,7.3,15.3"/>
				<path class="st17" d="M678,219.6c0,0.9-0.2,1.8-0.5,2.6"/>
			</g>
		</g>
	</g>
	<g>
		<path class="st7" d="M656.6,217.9c2,0,3.6-1.6,3.6-3.6s-1.6-3.6-3.6-3.6s-3.6,1.6-3.6,3.6S654.6,217.9,656.6,217.9z"/>
		<path class="st7" d="M656.6,218.3c-3.2,0-5.8,2.6-5.8,5.8h11.6C662.5,220.9,659.8,218.3,656.6,218.3z"/>
	</g>
</g>
<g id="Speech_Bubble_1">
	<g>
		<g>
			<g>
				<g>
					<g>
						<g>
							<g>
								
									<ellipse transform="matrix(0.3692 -0.9294 0.9294 0.3692 -60.6064 413.4149)" class="st0" cx="274.2" cy="251.4" rx="18.2" ry="18.2"/>
							</g>
							<g>
								<polygon class="st0" points="281.3,263.7 280.1,268.2 285.3,271 285.9,265.2 								"/>
							</g>
						</g>
					</g>
					<path class="st17" d="M289,235.2c4.8,3.4,7.7,9.4,7.3,15.3"/>
					<path class="st17" d="M296.1,253.2c0,0.9-0.1,1.8-0.5,2.6"/>
				</g>
			</g>
		</g>
		<g>
			<circle class="st7" cx="274.2" cy="248.2" r="3.6"/>
			<path class="st7" d="M274.2,252.3c-3.2,0-5.8,2.6-5.8,5.8H280C280,254.9,277.4,252.3,274.2,252.3z"/>
		</g>
	</g>
</g>
<g id="Character_2">
	<g>
		<g>
			<path class="st18" d="M660.7,449.6l8.9-7c5.7,6.5,10.3,12.9,13.7,16.8l-2.2,5l-5.8-1.2C675.4,463.2,669.2,456.6,660.7,449.6z"/>
			<g>
				<g>
					<g>
						<g>
							<path class="st0" d="M669.2,458.9l3.5-2.2c3.5,1.8,4.2,0.4,4.7-2.8c0.9-0.8,1.9,0.2,2.2,0.5l6.2,5.6c0.5,0.5,0.6,1.3,0.1,1.8
								c-0.1,0.1-0.2,0.2-0.3,0.2c-3.1,2-4.5,2.9-8.3,5.3l-11.6,7.4c-3.2,2-5.9-0.8-4.8-1.9c5-5,8.1-9.4,8.8-12.3
								C670,460,669.5,460,669.2,458.9z"/>
							<path class="st19" d="M668.7,461.9c0.9-0.4,2.1-0.4,3,0"/>
							<path class="st19" d="M667.9,464.1c0.9-0.4,2.1-0.4,3,0"/>
							<path class="st19" d="M666.6,466.3c0.9-0.4,2.1-0.4,3,0"/>
						</g>
					</g>
				</g>
				<path class="st20" d="M686,461.8c-0.1,0.1-0.2,0.2-0.3,0.2c-3.1,2-4.5,2.9-8.3,5.3l-11.6,7.4c-1.7,1.1-3.3,0.8-4.2,0.1
					c0.5-0.3,23.7-14.9,24-15.2l0.5,0.4C686.4,460.5,686.4,461.3,686,461.8z"/>
			</g>
		</g>
		<g>
			<path class="st18" d="M608.2,449.3l13.8,8.5c-1,10.4-3.6,19.8-2.6,24.8l-4.5,3.2l-6.1-6.3C608.9,479.5,609.4,461,608.2,449.3z"/>
			<g>
				<g>
					<g>
						<g>
							<path class="st0" d="M608.3,475l4.1-0.1c2.1,3.4,3.5,2.5,5.5,0c1.2-0.2,1.5,1.2,1.6,1.6l2.4,8.1c0.2,0.7-0.2,1.4-0.8,1.6
								c-0.1,0-0.2,0.1-0.4,0.1c-3.6,0.1-5.3,0.1-9.8,0.2l-13.8,0.3c-3.8,0.1-4.6-3.7-3.1-4.1c6.9-1.7,11.8-3.8,13.9-5.9
								C608.3,476.3,607.9,476.1,608.3,475z"/>
							<path class="st19" d="M606.3,477.3c1,0.1,2,0.7,2.6,1.6"/>
							<path class="st19" d="M604.5,478.7c1,0.1,2,0.7,2.6,1.6"/>
							<path class="st19" d="M602.2,480c1,0.1,2,0.7,2.6,1.6"/>
						</g>
					</g>
				</g>
				<path class="st20" d="M621.1,486.1c-0.1,0-0.2,0.1-0.4,0.1c-3.6,0.1-5.3,0.1-9.8,0.2l-13.8,0.3c-2,0-3.2-1-3.6-2.1
					c0.6,0,28-0.4,28.4-0.5l0.2,0.6C622.1,485.3,621.7,485.9,621.1,486.1z"/>
			</g>
		</g>
		<g>
			<g>
				<g>
					<g>
						<path class="st18" d="M626.8,251.6c0,0-1.5-5.1,0.1-14.6c0,0-0.5-0.2-0.5-0.2c0.2-1.3,0.5-2.6,0.7-3.6c0,0,0,0,0,0l-11.7,9.2
							c0.6,2.9,0.2,8.7-0.1,11.2c0,0-1.1,4.5,4.7,4.1C624.2,257.3,626.8,251.6,626.8,251.6z"/>
						<path class="st13" d="M615.7,246.5l7.1-2.5c-0.4,2.3-2.1,5.2-7.1,6C615.6,250.1,615.8,247.5,615.7,246.5z"/>
					</g>
					<g>
						<path class="st18" d="M626.6,227c0,8.1,0.2,12.6-3.5,17c-5.7,6.6-15.7,3.6-18.2-4.3c-2.2-7.1-1.9-19.2,5.7-22.8
							C618.2,213.3,626.5,218.9,626.6,227z"/>
						<path class="st10" d="M626.9,217.3c-1.4-4.4-12.5-3.6-15.5-1.2c-0.4,0.4,6.4,3.2,6,3.1l3.2,0.9c0.5-0.1,1.5,0.4,2,1.8
							c0,0,0.5,12.4,4.2,15.7c2.7-1.6,2.5-6.5,3.2-9.4C631.1,223.7,632.3,217.2,626.9,217.3z"/>
						<path class="st18" d="M630.2,233.5c-0.5,2.1-1.9,3.8-3.5,4.7c-2.3,1.4-3.4-1.2-3.3-3.8c0-2.3,0.5-5.1,3.1-5.4
							C629.1,228.7,630.8,231.1,630.2,233.5z"/>
						<path class="st10" d="M615.2,230.1c0.1,0.8-0.3,1.5-0.9,1.6s-1-0.6-1.1-1.4c-0.1-0.8,0.3-1.5,0.9-1.6
							C614.7,228.7,615.1,229.3,615.2,230.1z"/>
						<path class="st10" d="M607.1,230.8c0.1,0.8-0.3,1.5-0.9,1.6s-1-0.6-1.1-1.4c-0.1-0.8,0.3-1.5,0.9-1.6
							C606.6,229.4,607.1,230,607.1,230.8z"/>
						<path class="st21" d="M609.7,230.2c0,0-2.3,4.3-3,6c1.2,1,3.2,0.4,3.2,0.4L609.7,230.2z"/>
						<path class="st10" d="M616.9,226.1c-0.1,0.1-0.3,0.1-0.4,0c-1.4-1-2.8-0.4-2.8-0.4c-0.2,0.1-0.4,0-0.5-0.2
							c-0.1-0.2,0-0.4,0.2-0.5c0.1,0,1.7-0.7,3.5,0.5c0.2,0.1,0.2,0.4,0.1,0.5C617,226,617,226.1,616.9,226.1z"/>
						<path class="st22" d="M612.7,239c1.3-0.1,2.3-0.8,3.3-1.9"/>
					</g>
					<path class="st23" d="M628.2,231.4c-0.4-0.5-1-0.6-1.6-0.4s-1,0.6-1.3,1.1c-0.4,0.6-0.6,1.3-0.6,2"/>
				</g>
				<path class="st10" d="M603.3,227.6c-0.1,0-0.1,0-0.2-0.1c-0.2-0.1-0.2-0.4,0-0.6c1.4-1.6,3.2-1.3,3.2-1.3c0.2,0,0.4,0.2,0.3,0.4
					c0,0.2-0.2,0.4-0.4,0.3c-0.1,0-1.4-0.2-2.6,1.1C603.6,227.6,603.4,227.6,603.3,227.6z"/>
			</g>
			<g>
				<path class="st10" d="M628.3,213.6c-0.8-1.8-3.1-1.9-4.9-1.4c-0.1-2.2-3.1-3.2-4.9-3c-1.9,0.2-2.5,1-2.5,1c0.2,0-0.7-1-1.1-1.4
					c-1.8-1.5-4.4-1.8-6.4-0.7s-3.2,3.5-3,5.9c-1.3-1.1-3.3-0.9-4.3,0.5c-1,1.3-0.7,3.5,0.6,4.6c-1.4,0.2-2.4,1.8-2.1,3.2
					c0.3,1.4,1.8,2.4,3.2,2.1c0.2,1.6,0.6,3.6,0.8,5.3l1.7-6.2c1.1-0.5,1.2-1,1.4-2.3c1,1.5,2.2,1.2,3.9,1c1.7-0.2,3.2-1.5,3.7-3.1
					c1,1.5,2.8,2.6,4.5,2.4s3.3-1.9,3.1-3.7c1.2,1.5,3.4,1.9,4.9,0.9C628.4,217.7,629.1,215.4,628.3,213.6z"/>
			</g>
		</g>
		<g>
			<path class="st0" d="M640.6,251.1c0,0,7.2,0.2,10.1,8.2c2.7,7.4,9.4,23.7,9.4,23.7l-16.2,4.7l-6.5-19.3L640.6,251.1z"/>
		</g>
		<g>
			<path class="st10" d="M614.1,328l9.8,20.8c0,0-15.5,46.6-16.4,51.5c-0.9,4.9-1.4,66.1-1.4,66.1l17.2,0l6.8-59.8
				c0,0,20.9-50.8,22.5-54.9c2.9-7.7-0.1-18.1-0.1-18.1l-5.3-7.7L614.1,328z"/>
			<path class="st10" d="M604.7,338.5c0,1.9,6.7,66.5,7.8,66.8c1.1,0.2,49.8,53.5,49.8,53.5l13.8-12.1l-35.8-48.5l-4-43.6l-1.4-27.4
				l-31.2,2.3L604.7,338.5z"/>
			<polygon class="st24" points="628.3,422.1 629.2,406.9 639.2,384.7 639.2,384.7 631.7,408.2 631,424.3 			"/>
			<polygon class="st24" points="610.2,390.5 623.9,348.9 619.1,344.5 620.7,350.5 609.7,385.6 			"/>
		</g>
		<g>
			<g>
				<g>
					<path class="st18" d="M563.1,271.4l21.1,19.4l9.8-18.3c0,0,10.7,10.6,10.4,10.8s-12.6,27-21.5,22.2s-23.8-29.1-23.8-29.1
						L563.1,271.4z"/>
					<path class="st13" d="M584.2,290.7c0,0,1.8,2.9,1.6,5.7c0,0,0.8-1.4,0.6-3.5c-0.2-2.2-1.3-3.7-1.3-3.7L584.2,290.7z"/>
				</g>
				<path class="st0" d="M603.6,255.9c5.8,3,8.1,13.5-4.3,38.8l-14.8-11.4c2.4-6.3,4.8-9.6,8.6-17.3
					C599.1,254.1,603.6,255.9,603.6,255.9z"/>
				<path class="st0" d="M603.5,255.5c4.1-0.9,20.2-5.1,37.5-4.4l9.1,64.4c0,0,1.8,8.4,4.2,16.8c-16.5,9.5-39.3,11.1-51.6,5.9
					c0.2,0.3-0.2-6.9-0.8-17.3c-0.9-18.4-2.3-47.2-1.9-63.9C600.1,256.6,603,255.6,603.5,255.5z"/>
				<polygon class="st13" points="600.7,291.9 600.1,271.1 597.5,293.3 599.3,294.7 				"/>
				<polygon class="st13" points="644.8,287.5 643.9,287.8 638,272 642.4,290 645.4,290 				"/>
			</g>
			<g>
				<g>
					<g>
						<g>
							<g>
								<g>
									<g>
										<path class="st18" d="M565.1,274.7c0,0,1.6-2.6,1-5s-0.4-4.5-1-6.3c-0.5-1.8-1.6,0.5-1.8,1.9c-0.3,1.3-0.6,2.9-1.6,2.5
											c-1-0.4-6.6-7.3-8-7.7c-1.4-0.4-0.8,1-0.8,1s-1.4-1.6-2.2-1.3c-0.2,0.1-0.5,0.7,0,1.5c1.2,1.9,3.9,5.8,3.9,5.8
											c-0.2-0.2-3.8-4.8-4.4-5.4c-0.8-0.8-1.6-0.8-2.1-0.3c-0.6,0.7,3.7,6.5,3.7,6.9c0,0-2.4-3.5-3.6-3.3
											c-1.2,0.1,0.2,2.4,1.8,4.1c1.5,1.6,3.9,5.1,5.6,6.6c2,1.8,3.8,2.6,6.2,1.6C564,276.4,565.1,274.7,565.1,274.7z"/>
									</g>
								</g>
							</g>
						</g>
					</g>
				</g>
				<path class="st25" d="M553.2,261.2c1.1,1.4,2.1,2.8,3.1,4.2"/>
				<path class="st25" d="M552.6,269.7c1.3-1.8,3.2-3.2,5.3-4"/>
				<path class="st25" d="M561.5,268.8c-0.6,0.7-1,1.6-1,2.5c0,0.9,0.2,1.8,0.8,2.6"/>
			</g>
		</g>
		<g>
			<path class="st18" d="M658.9,283.4c0,0,4.9,11.5,6.9,21.9c0.9,4.7-2.8,7.7-6.7,8.6c-12.1,2.9-39.4,2.9-39.4,2.9l-0.7-8.3
				l31.5-6.8l-5.7-14.2L658.9,283.4z"/>
			<path class="st10" d="M619.7,318.6l-10.3,1.2c-0.3,0-0.7-0.1-1-0.3l-15.7-15.5c-0.7-0.6-0.3-1.7,0.5-2l9.1-2.3
				c0.4-0.1,0.8,0,1.1,0.3l16.9,16.7C621,317.3,620.6,318.5,619.7,318.6z"/>
			<path class="st18" d="M620.6,308.6c0,0-0.3-1.2-4.8-2.6c-3.5-1.1-6.9-4.3-7.5-4.2s-1.2,1.9,0.3,3.4s2.9,2.4,2.5,3
				c-0.9,1.4-12.2,0.3-12.4,1.5c-0.2,1.2,2,4.8,8,7.1c6,2.4,14.3,0,14.3,0L620.6,308.6z"/>
		</g>
	</g>
</g>
<g id="Character_1">
	<g>
		<g>
			<g>
				<polygon class="st10" points="563.7,445.7 88.2,456.8 88.2,375.5 568.3,375.5 				"/>
				<polygon class="st26" points="563.7,445.7 88.2,456.8 88.2,375.5 568.3,375.5 				"/>
				<g id="freepik--Car--inject-7_00000119820043546283482960000011382544754475276446_">
					<path class="st4" d="M69.9,396.4v41.2c0,8.8,5.8,16.6,14.2,19.2l3.4,1c2.1,0.6,4.2,0.9,6.4,0.9l22.2-0.5
						c-2.6-9.2-2.9-19-0.7-28.3c7.1-30.2,37.4-49,67.6-41.9c30.2,7.1,49,37.4,41.9,67.6l226-5.4c-0.4-2.6-0.5-5.3-0.5-8
						c0.1-31.1,25.4-56.1,56.5-56c31.1,0.1,56.1,25.4,56,56.5c0,1.1-0.1,2.2-0.1,3.3c0.3-0.1,0.6-0.2,0.9-0.4l7.7-3.5
						c7.6-3.4,12.5-11,12.5-19.4v-84c0-7.9-4.4-15.1-11.4-18.8l-58.1-30.5c-0.7-0.4-1.2-0.9-1.4-1.6c-0.6-1.6,0.2-3.4,1.8-3.9
						l7.1-2.5c0.6-0.2,1-0.7,1.1-1.4c0.1-0.9-0.5-1.7-1.4-1.9c-27.6-3.9-134.9-17.9-191.4-11c-65.1,8-127.5,64.5-127.5,64.5
						c-47.9-1.8-92.6,14.9-111.9,23.2c-6.2,2.7-11,7.9-13.2,14.4l-6.6,19.5C70.4,391.1,69.9,393.7,69.9,396.4z"/>
					<path class="st10" d="M451,450.3c-0.3-2.5-0.5-5-0.5-7.5c0-1.3,0-2.5,0.1-3.8l-40.9-16.7c-2.4-1-5-1.4-7.5-1.2l-142.1,9.3
						c-2.3,0.1-4.6,0.8-6.7,1.8l-27,13.9c-0.2,3.2-0.6,6.4-1.4,9.5L451,450.3z"/>
					<path class="st10" d="M584,422.8v-2.1l-23.1,7.1c1.3,4.9,2,10,2,15c0,1.1-0.1,2.2-0.1,3.3c0.3-0.1,0.6-0.2,0.9-0.4l7.7-3.5
						C579.1,438.8,584,431.2,584,422.8z"/>
					<path class="st10" d="M76.5,452.4c2.2,2,4.8,3.6,7.7,4.4l3.4,1c2.1,0.6,4.2,0.9,6.4,0.9l22.2-0.5c-0.8-2.8-1.4-5.7-1.7-8.6
						L76.5,452.4z"/>
					<path class="st10" d="M506.8,381.2c-2.5,0-5.1,0.2-7.6,0.5c-33.7,4.2-57.6,35-53.4,68.7l5.3-0.1c-0.4-2.6-0.5-5.3-0.5-8
						c0.1-31.1,25.4-56.1,56.5-56c31.1,0.1,56.2,25.4,56,56.5c0,1.1-0.1,2.2-0.1,3.3c0.3-0.1,0.6-0.2,0.9-0.4l4.4-2
						c0-0.3,0-0.6,0-0.9C568.3,408.8,540.7,381.3,506.8,381.2L506.8,381.2z"/>
					<path class="st10" d="M170.2,381.2c-5.3,0-10.5,0.7-15.6,2c-32.9,8.6-52.6,42.2-44,75.1l5.5-0.1c-2.6-9.2-2.9-19-0.7-28.3
						c7.1-30.2,37.4-49,67.6-41.9c30.2,7.1,49,37.4,41.9,67.6l5.4-0.1c0.9-4.2,1.3-8.5,1.3-12.8
						C231.8,408.8,204.2,381.2,170.2,381.2L170.2,381.2z"/>
					<path class="st0" d="M223.8,333.9c-0.7,0.6-1.1,1.4-1.3,2.3c-0.5,2.1,0.7,4.3,2.6,4.8l23.5,6.6c2.1,0.6,4.2,0.8,6.4,0.5
						l174.2-21.6c4.2-0.5,8.2-2.7,11.2-6.2l22.9-26.6c0.8-0.9,1.2-2,1.4-3.2c0.3-3-1.6-5.8-4.2-6.1c-41.7-5.5-94.4-10.6-127.7-6.5
						C288.9,283.2,244.9,316,223.8,333.9z"/>
					<path class="st27" d="M224.6,333.9c-0.7,0.6-1.1,1.4-1.3,2.3c-0.5,2.1,0.7,4.3,2.6,4.8l23.5,6.6c2.1,0.6,4.2,0.8,6.4,0.5
						L426,336.4c4.2-0.5,10.8-8.3,15.4-14.6l22.5-28.1c0.8-0.9,1.2-2,1.4-3.2c0.3-3-1.6-5.8-4.2-6.1c-41.7-5.5-94.4-10.6-127.7-6.5
						C289.6,283.2,245.7,316,224.6,333.9z"/>
					<g class="st28">
						<path d="M338.4,350.5c-1.1-0.4-1.7-1.6-1.3-2.8l0,0c0.5-1.4,1.8-2.3,3.2-2.4l20.7-0.9c0.3,0,0.6,0,0.8,0.1
							c1.1,0.4,1.7,1.6,1.3,2.8l0,0c-0.5,1.4-1.8,2.3-3.3,2.4l-20.7,0.9C338.9,350.7,338.6,350.6,338.4,350.5z"/>
					</g>
					<path class="st4" d="M492.5,291.1c-1.8,1.6-2,4.4-0.4,6.3l4.9,5.3c0.6,0.6,1.3,1,2.1,1.3l60.2,16.7c1,0.3,2.1,0.4,3.2,0.4h12
						c-0.6-0.4-1.3-0.8-1.9-1.1l-58.1-30.6l0,0c-1.5-0.7-2.1-2.5-1.3-4l-18.9,4.7C493.6,290.4,493,290.7,492.5,291.1z"/>
					<path class="st7" d="M117.6,362.7L97,360.4l-11.8,4.8c-2.5,1-4.3,3.1-5,5.7l0,0c-0.4,1.5-0.2,3.1,0.6,4.4l0.2,0.4
						c1.3,2.3,3.9,3.5,6.5,3.2l11.8-1.6c1.2-0.2,2.2-0.6,3.2-1.3l13.7-10.4L117.6,362.7z"/>
					<path class="st0" d="M202.9,331.5l3.3,0.9c2.5,0.7,5.3,0.1,7.3-1.6c19-16.1,52.1-40.8,87.9-52.3c0.2,0,0.3-0.2,0.4-0.3
						c0.2-0.3,0.1-0.7-0.2-0.9l-4.4-2.3C245.5,292.9,202.9,331.5,202.9,331.5z"/>
					<path class="st27" d="M202.9,331.5l3.3,0.9c2.5,0.7,5.3,0.1,7.3-1.6c19-16.1,52.1-40.8,87.9-52.3c0.2,0,0.3-0.2,0.4-0.3
						c0.2-0.3,0.1-0.7-0.2-0.9l-4.4-2.3C245.5,292.9,202.9,331.5,202.9,331.5z"/>
					<path class="st29" d="M398.2,353.3L225,365.7l3.3,21.4c1,6.5,3.4,12.8,7.1,18.3l14.5,21.6l147.8-20l69.9-53.7L398.2,353.3
						L398.2,353.3z"/>
					<circle class="st10" cx="506.7" cy="442.8" r="46.9"/>
					<circle class="st12" cx="506.7" cy="442.8" r="28.7"/>
					<g class="st28">
						<path class="st7" d="M509,419.2V434c0,1.3-1,2.3-2.3,2.3h0c-1.3,0-2.3-1-2.3-2.3v-14.7c0-1.3,1-2.3,2.3-2.3h0
							C508,417,509,418,509,419.2z"/>
					</g>
					<g class="st28">
						<path class="st7" d="M509,451.6v14.7c0,1.3-1,2.3-2.3,2.3h0c-1.3,0-2.3-1-2.3-2.3v-14.7c0-1.3,1-2.3,2.3-2.3h0
							C508,449.3,509,450.4,509,451.6z"/>
					</g>
					<g class="st28">
						<path class="st7" d="M515.5,440.4c-1.1,0.6-2.5,0.2-3.1-0.9l0,0c0,0,0,0,0,0c-0.6-1.1-0.2-2.5,0.8-3.1L526,429
							c1.1-0.6,2.5-0.3,3.2,0.8l0,0c0.6,1.1,0.2,2.5-0.8,3.1L515.5,440.4C515.5,440.4,515.5,440.4,515.5,440.4z"/>
					</g>
					<g class="st28">
						<path class="st7" d="M487.5,456.5c-1.1,0.6-2.5,0.2-3.1-0.9l0,0c0,0,0,0,0,0c-0.6-1.1-0.2-2.5,0.9-3.1l12.8-7.4l0,0
							c1.1-0.6,2.5-0.3,3.1,0.8l0,0c0.6,1.1,0.3,2.5-0.8,3.1L487.5,456.5C487.5,456.5,487.5,456.5,487.5,456.5z"/>
					</g>
					<g class="st28">
						<path class="st7" d="M526,456.6l-12.8-7.4c-1.1-0.6-1.5-2-0.8-3.1l0,0c0.6-1.1,2-1.5,3.2-0.8l12.8,7.4c1.1,0.6,1.5,2,0.8,3.1
							l0,0C528.5,456.8,527.1,457.2,526,456.6z"/>
					</g>
					<g class="st28">
						<path class="st7" d="M501.1,439.5c-0.6,1.1-2,1.5-3.1,0.8l-12.8-7.4c0,0,0,0,0,0c-1.1-0.6-1.5-2-0.8-3.1l0,0c0,0,0,0,0,0
							c0.6-1.1,2-1.5,3.1-0.8l12.8,7.4l0,0C501.4,437,501.7,438.4,501.1,439.5L501.1,439.5L501.1,439.5z"/>
					</g>
					<path class="st10" d="M502.9,442.8c0-2.1,1.7-3.9,3.9-3.9h0c2.1,0,3.9,1.7,3.9,3.9s-1.7,3.9-3.9,3.9S502.9,444.9,502.9,442.8
						C502.9,442.8,502.9,442.8,502.9,442.8z"/>
					<circle class="st10" cx="170.2" cy="442.8" r="46.9"/>
					<circle class="st12" cx="170.2" cy="442.8" r="28.7"/>
					<g class="st28">
						<path class="st7" d="M172.5,419.2V434c0,1.3-1,2.3-2.3,2.3h0c-1.3,0-2.3-1-2.3-2.3v-14.7c0-1.3,1-2.3,2.3-2.3h0
							C171.5,417,172.5,418,172.5,419.2z"/>
					</g>
					<g class="st28">
						<path class="st7" d="M172.5,451.6v14.7c0,1.3-1,2.3-2.3,2.3h0c-1.3,0-2.3-1-2.3-2.3v-14.7c0-1.3,1-2.3,2.3-2.3h0
							C171.5,449.3,172.5,450.4,172.5,451.6z"/>
					</g>
					<g class="st28">
						<path class="st7" d="M179,440.4c-1.1,0.6-2.5,0.2-3.1-0.9l0,0l0,0c-0.6-1.1-0.3-2.5,0.8-3.1l12.8-7.4c0,0,0,0,0,0
							c1.1-0.6,2.5-0.2,3.1,0.9l0,0c0,0,0,0,0,0c0.6,1.1,0.2,2.5-0.9,3.1L179,440.4C179,440.4,179,440.4,179,440.4z"/>
					</g>
					<g class="st28">
						<path class="st7" d="M147.9,455.7L147.9,455.7C147.9,455.7,147.9,455.7,147.9,455.7c-0.6-1.1-0.3-2.5,0.8-3.1l12.8-7.4
							c1.1-0.6,2.5-0.3,3.1,0.8l0,0c0.6,1.1,0.3,2.5-0.8,3.1l-12.8,7.4C149.9,457.1,148.5,456.8,147.9,455.7z"/>
					</g>
					<g class="st28">
						<path class="st7" d="M192.6,455.7c-0.6,1.1-2,1.5-3.1,0.8l-12.8-7.4c-1.1-0.6-1.5-2-0.8-3.1l0,0l0,0c0.6-1.1,2-1.5,3.1-0.8
							l12.8,7.4c0,0,0,0,0,0C192.9,453.2,193.3,454.6,192.6,455.7L192.6,455.7L192.6,455.7z"/>
					</g>
					<g class="st28">
						<path class="st7" d="M164.6,439.5c-0.6,1.1-2.1,1.5-3.1,0.8l-12.8-7.4c0,0,0,0,0,0c-1.1-0.6-1.5-2-0.8-3.1l0,0
							c0.6-1.1,2.1-1.5,3.1-0.8l12.8,7.4c0,0,0,0,0,0C164.9,437,165.2,438.4,164.6,439.5L164.6,439.5
							C164.6,439.5,164.6,439.5,164.6,439.5z"/>
					</g>
					<path class="st10" d="M170.2,438.9L170.2,438.9c2.1,0,3.9,1.7,3.9,3.9c0,2.1-1.7,3.9-3.9,3.9s-3.9-1.7-3.9-3.9
						C166.4,440.7,168.1,438.9,170.2,438.9z"/>
					<path class="st30" d="M579.1,354.4c1.6-0.5,2.4-2.1,2-3.7c-0.5-9.9-2.6-18.6-8.7-24.7c-0.4-1.3-1.7-2.2-3.1-2.1l-35.7,3.4
						c-0.6,0.1-1.2,0.3-1.7,0.8c-1.2,1.1-1.3,3-0.2,4.2l10.2,11c0.4,0.4,0.8,0.7,1.3,0.8l34.2,10.4
						C578,354.5,578.5,354.5,579.1,354.4z"/>
					<path class="st10" d="M222.5,336.2c-0.5,2.1,0.7,4.3,2.6,4.8l23.5,6.6c2.1,0.6,3.8,1,6.5,1.1l7.4-0.5l-7-37.7
						c-16.1,10.6-17.2,11.1-31.7,23.4C223.1,334.5,222.7,335.3,222.5,336.2z"/>
					<path class="st10" d="M375.5,276.6L360.8,341l19.3-1.4l8.8-62.4C384.4,277,379.9,276.8,375.5,276.6z"/>
					<path class="st10" d="M436.8,327.6l27.1-33.9c0.8-0.9,1.3-2,1.4-3.3c0.3-3-1.6-5.8-4.3-6.1c-5.5-0.8-11.5-1.5-17.4-2.2"/>
					<g>
						<path class="st4" d="M243.9,342.7c-4.7,0.1-8.5-3.7-8.6-8.4l0,0c-0.1-4,2.7-7.5,6.6-8.4l11.3-2.6l2.9,19l-12,0.5
							C244,342.7,243.9,342.7,243.9,342.7z"/>
						<polygon class="st30" points="252.7,342.4 256,342.3 253.1,323.3 249.9,324 						"/>
					</g>
				</g>
				<path class="st31" d="M379.6,339.6c0.1,6.7,0.1,13.7-0.6,17.3c-1.6,8-14.1,66.6-14.1,66.6"/>
				<path class="st31" d="M222.4,337.6c0,0,3.7,50.6,9.4,60.9c5.5,10,21.6,33.7,21.6,33.7"/>
				<path class="st31" d="M209.4,332.8c0,0-39.9,9.9-51.7,11.8c-9.6,1.5-48.9,11.1-60.7,15.9"/>
			</g>
			<path class="st27" d="M492.5,291.1c-1.8,1.6-2,4.4-0.4,6.3l4.9,5.3c0.6,0.6,1.3,1,2.1,1.3l60.2,16.7c1,0.3,2.1,0.4,3.2,0.4h12
				c-0.6-0.4-1.3-0.8-1.9-1.1l-58.1-30.6l0,0c-1.5-0.7-2.1-2.5-1.3-4l-18.9,4.7C493.6,290.4,493,290.7,492.5,291.1z"/>
			<path class="st10" d="M266.4,329.6c-0.5,0.3-6.9,6.9-6.9,6.9l1.2,8.2l8-8.3L266.4,329.6z"/>
			<path class="st10" d="M276,346.7L276,346.7c-1.4,0.7-3.1,0.1-3.8-1.3l-12.8-25.8c-0.7-1.4-0.1-3.1,1.3-3.8l0,0
				c1.4-0.7,3.1-0.1,3.8,1.3l12.8,25.8C278,344.3,277.4,346,276,346.7z"/>
		</g>
		<g>
			<g>
				<path class="st32" d="M289.9,315.6c0,0,6.3,25.2,10,26.2c6.7,1.7,29.8-0.2,29.4-1l-1-11.6c0,0-23.3,3.9-23.1,3.5l-8.8-19.6
					L289.9,315.6z"/>
				<g>
					<g>
						<g>
							<g>
								<g>
									<g>
										<g>
											<path class="st32" d="M295.7,314.6c0,0,2.1-1.9,2.1-4.3c0.1-2.4,0.7-4.2,0.6-6c-0.1-1.8-1.5,0.1-2.1,1.2s-1.2,2.4-2,1.9
												c-0.8-0.6-4.2-8.2-5.4-8.9c-1.2-0.7-1,0.7-1,0.7s-0.9-1.8-1.7-1.7c-0.2,0-0.6,0.5-0.4,1.4c0.6,2,2.1,6.2,2.1,6.2
												c-0.1-0.2-2.3-5.3-2.7-6c-0.6-0.9-1.3-1.1-1.8-0.7c-0.8,0.5,1.8,6.8,1.7,7.2c0,0-1.3-3.7-2.5-3.9s-0.4,2.2,0.6,4.2
												c0.9,1.8,2.3,5.6,3.5,7.3c1.4,2.1,2.8,3.3,5.2,2.9C294.3,315.8,295.7,314.6,295.7,314.6z"/>
										</g>
									</g>
								</g>
							</g>
						</g>
					</g>
					<path class="st25" d="M288.1,299.5c0.7,1.5,1.3,3,1.8,4.5"/>
					<path class="st25" d="M285.6,307.1c1.6-1.3,3.7-2.2,5.8-2.4"/>
					<path class="st25" d="M293.8,308.4c-0.7,0.5-1.3,1.2-1.5,2s-0.2,1.7,0.1,2.5"/>
				</g>
			</g>
			<path class="st10" d="M355.9,327.5c-4.2-5.6-11-5-15.3-4.3l-8.6,1.4c-0.3,0-0.5,0.1-0.8,0.2l-2,0.6l-18.5,5.9l4.5,11.9l6-0.7
				l-1,1.6l5.9-0.4l0,0l32.4-1.7l0,0v-6.6C358.5,332.6,357.6,329.8,355.9,327.5z"/>
			<g>
				<g>
					<g>
						<path class="st32" d="M354.2,336.8c0,0-4.1,27.2-6.9,30.1c-6.9,6.9-32.2-12.1-32.2-12.1l0.8-7.3l21.9,9.1l4.1-23.1
							L354.2,336.8z"/>
					</g>
					<path class="st10" d="M357.5,335c-0.2,0.7-2,19.7-2,19.7l-18.6-1.7c0,0,1-5.3,2.4-14.5c1.5-9.6,2.3-14.5,7.1-15.2
						C355.4,321.7,357.5,335,357.5,335z"/>
				</g>
				<g>
					<g>
						<path class="st10" d="M351.3,291.9c2.8,4.9,3.8,7.9,4,12.6c0.3,5.5,0,10.4-1.2,11.8c-1.6,1.9-19,3.6-28.8,3.2
							c-0.4,0-0.6-3.1-0.6-3.1s-1.4,3-1.8,3c-2.7-0.1-4.4-0.2-4.4-0.2s2.2-4.5,4.9-21c1.3-8,9.4-11.2,14.1-11.8
							C345.4,285.4,351.3,291.9,351.3,291.9z"/>
						<path class="st10" d="M328,307.4c-2.6-4.4-5.1-16.3,5.6-20c13.3-4.6,19.3,3.9,20.4,12.3c1.1,8.4-3.6,14.8-12.4,14.1
							C332.8,313.2,329.8,310.5,328,307.4z"/>
						<g>
							<g>
								<path class="st32" d="M346.5,308l-7.9,7.2l-1.5,1.6c0.4,1.1,0.8,2.3,0.9,3.4c0.2,2-1,3.5-1,3.5l-1.8,4
									c3.9-3.1,12.9-4.7,12.9-4.7C346.7,317.9,346.1,313.1,346.5,308z"/>
								<path class="st13" d="M338.1,320.7c2.1-1.1,4.5-3.1,4.3-5.6c-0.1-1-0.2-2-0.5-2.6l-4.5,5.4
									C337.8,318.8,337.9,319.4,338.1,320.7z"/>
								<path class="st32" d="M349,300c-1.1,7.7-1.4,11-5.5,14.8c-6.3,5.8-15.4,3.3-16.6-4.4c-1.1-7,0.8-18.3,8.5-21.2
									C343,286.3,350.1,292.3,349,300z"/>
								<path class="st10" d="M339.2,302.3c-0.1,0.8-0.6,1.4-1.1,1.4c-0.5,0-0.9-0.6-0.9-1.4c0.1-0.8,0.6-1.4,1.1-1.4
									C338.9,300.9,339.3,301.6,339.2,302.3z"/>
								<path class="st10" d="M331.2,301.8c-0.1,0.7-0.6,1.3-1.1,1.3c-0.5,0-0.9-0.6-0.8-1.4c0.1-0.7,0.6-1.3,1.1-1.3
									C330.9,300.5,331.3,301.1,331.2,301.8z"/>
								<path class="st10" d="M340.4,299.5c-0.1,0-0.2,0-0.3-0.1c-1.3-1-2.8-0.6-2.8-0.6c-0.2,0.1-0.4,0-0.5-0.2s0.1-0.4,0.3-0.5
									c0.1,0,1.9-0.6,3.5,0.7c0.2,0.1,0.2,0.4,0,0.5C340.6,299.5,340.5,299.5,340.4,299.5z"/>
								<path class="st10" d="M328.6,298c-0.1,0-0.1-0.1-0.2-0.2c-0.1-0.2,0.1-0.4,0.3-0.5c2.1-0.6,3.4,0.5,3.5,0.5
									c0.2,0.1,0.2,0.4,0,0.5c-0.1,0.1-0.4,0.2-0.5,0c0,0-1.1-0.9-2.8-0.4C328.8,298,328.7,298,328.6,298z"/>
								<path class="st10" d="M342.9,292.8c-2.6,2.5-1.8,12.2,5,13.9C355.9,305.2,350.6,285.5,342.9,292.8z"/>
								<path class="st10" d="M332.9,309.1c0.6,1,1.2,2.9,1.2,2.9c0.2,0,0.4-0.1,0.5-0.1c2.5-0.5,3.5-1.5,3.8-2.5
									c0.2-0.5,0.2-1.1,0.1-1.5c-0.1-0.5-0.2-0.9-0.2-0.9c-1.2,1-3.5,1.6-4.7,1.9C333.2,309.1,332.9,309.1,332.9,309.1z"/>
								<path class="st7" d="M333.7,309l0.4,0.9c2.3-0.4,3.9-1.1,4.5-1.9c-0.1-0.5-0.2-0.9-0.2-0.9C337.2,308.1,335,308.7,333.7,309
									z"/>
								<path class="st33" d="M334.7,311.9c2.5-0.5,3.5-1.5,3.8-2.5c-0.8,0.2-1.8,0.5-2.6,1.1C335.2,310.9,334.9,311.4,334.7,311.9z
									"/>
								<path class="st34" d="M333.4,301.4c0,0-1.6,3.4-3.2,5c0.9,1,2.7,0.6,2.7,0.6L333.4,301.4z"/>
							</g>
							<path class="st10" d="M336.8,300.5l1.8,0.5C337.7,301.8,336.8,300.5,336.8,300.5z"/>
							<path class="st10" d="M328.9,300l1.8,0.5C329.8,301.4,328.9,300,328.9,300z"/>
						</g>
						<path class="st10" d="M335.5,287.5c-3.1,0.9-6.6,6-7.2,8c4.3,0.9,16.2-2.6,16.2-2.6s7.7,2.5,3.9-1.6
							C344.7,287.2,335.5,287.5,335.5,287.5z"/>
						<path class="st32" d="M351,306.4c-1,1.5-2.5,2.5-3.9,2.7c-2.1,0.4-3-2.9-2.2-4.9c0.7-1.8,2.8-2.9,4.7-2.4
							C351.7,302.2,352.2,304.6,351,306.4z"/>
						<path class="st35" d="M324.5,296.8c-0.6,3.4-1.2,6.8-2.5,10c-1.3,3.2-4,9.7-6.9,11.5"/>
					</g>
					<path class="st0" d="M346.5,308.9c0,0.8,0.6,1.5,1.4,1.5s1.5-0.6,1.5-1.4s-0.6-1.5-1.4-1.5
						C347.3,307.5,346.6,308.1,346.5,308.9z"/>
					<path class="st36" d="M349.5,304.1c-0.7-0.2-1.4-0.1-2,0.3c-0.6,0.4-1,1.1-1,1.8"/>
				</g>
			</g>
			<path class="st32" d="M324.4,352.6l-8.6-5.1l-2.4-3c0,0-2.4-2.9-4.4-3c-1.4-0.1-2.8,0.6-2.8,0.6s-2.3,1.4-0.9,3.6
				c0,0-2.2,1.1-0.7,3.6c0,0-2.1,0-0.3,2.3s4,2.7,5.7,3s3.8-0.3,3.8-0.3l9.5,6.3L324.4,352.6z"/>
			<polyline points="338.6,343.1 340.1,333.4 335.4,343.2 338.6,343.1 			"/>
			<polygon points="321.2,342.5 325,334.6 317.6,342.9 			"/>
		</g>
	</g>
</g>
</svg>
