<?xml version="1.0" encoding="utf-8"?>
<!-- Generator: Adobe Illustrator 28.1.0, SVG Export Plug-In . SVG Version: 6.00 Build 0)  -->
<svg version="1.1" xmlns="http://www.w3.org/2000/svg" xmlns:xlink="http://www.w3.org/1999/xlink" x="0px" y="0px"
	 viewBox="0 0 750 500" style="enable-background:new 0 0 750 500;" xml:space="preserve">
<style type="text/css">
	.st0{fill:#407BFF;}
	.st1{opacity:0.9;fill:#DEF7E5;}
	.st2{fill:#E0E0E0;}
	.st3{fill:#EBEBEB;}
	.st4{fill:#92E3A9;}
	.st5{fill:#E6E6E6;}
	.st6{fill:#F0F0F0;}
	.st7{fill:#FFFFFF;}
	.st8{fill:#F5F5F5;}
	.st9{fill:#FFFFFF;stroke:#E0E0E0;stroke-width:0.4521;stroke-linecap:round;stroke-linejoin:round;stroke-miterlimit:10;}
	.st10{fill:none;stroke:#E0E0E0;stroke-width:0.4521;stroke-linecap:round;stroke-linejoin:round;stroke-miterlimit:10;}
	.st11{fill:#263238;}
	.st12{opacity:0.6;fill:#FFFFFF;enable-background:new    ;}
	.st13{opacity:0.4;fill:#FFFFFF;enable-background:new    ;}
	.st14{opacity:0.2;enable-background:new    ;}
	.st15{fill:none;stroke:#407BFF;stroke-width:0.4521;stroke-miterlimit:10;}
	.st16{fill:none;stroke:#92E3A9;stroke-width:0.9043;stroke-miterlimit:10;}
	.st17{fill:none;stroke:#407BFF;stroke-width:0.4521;stroke-linecap:round;stroke-linejoin:round;stroke-miterlimit:10;}
	.st18{fill:#B97964;}
	.st19{fill:none;stroke:#263238;stroke-width:0.4521;stroke-linecap:round;stroke-linejoin:round;stroke-miterlimit:10;}
	.st20{opacity:0.7;fill:#FFFFFF;}
	.st21{opacity:0.2;}
	.st22{fill:#A24E3F;}
	.st23{fill:none;stroke:#263238;stroke-width:0.6782;stroke-linecap:round;stroke-linejoin:round;stroke-miterlimit:10;}
	
		.st24{opacity:0.2;fill:none;stroke:#000000;stroke-width:0.4521;stroke-linecap:round;stroke-linejoin:round;stroke-miterlimit:10;}
	.st25{opacity:0.4;}
	
		.st26{opacity:0.3;fill:none;stroke:#000000;stroke-width:0.2261;stroke-linecap:round;stroke-linejoin:round;stroke-miterlimit:10;}
	.st27{opacity:0.5;enable-background:new    ;}
	.st28{opacity:0.8;fill:#FFFFFF;enable-background:new    ;}
	.st29{opacity:0.3;}
	.st30{fill:#FFFFFF;enable-background:new    ;}
	.st31{opacity:0.2;fill:#FFFFFF;enable-background:new    ;}
	.st32{opacity:0.3;enable-background:new    ;}
	
		.st33{opacity:0.6;fill:none;stroke:#000000;stroke-width:0.4521;stroke-linecap:round;stroke-linejoin:round;stroke-miterlimit:10;}
	.st34{fill:#EBB373;}
	.st35{fill:#DC5753;}
	.st36{fill:#E4873E;}
	.st37{fill:none;stroke:#263238;stroke-width:0.4521;stroke-miterlimit:10;}
	
		.st38{opacity:0.1;fill:none;stroke:#000000;stroke-width:0.4521;stroke-linecap:round;stroke-linejoin:round;stroke-miterlimit:10;}
</style>
<g id="Background_simple">
	<g>
		<path class="st0" d="M246.66,147.44c-24.45,22.5-44.67,49.27-58.41,79.32c-16.19,35.42-26.65,80.79,4.83,110.15
			c58.12,54.21,132.56,6.48,146.6,59.55c15.91,60.11,65.28,110.24,150.66,76.6C652.52,409.18,706.1,117.4,593.01,51.69
			C522.61,10.79,376.51,27.95,246.66,147.44z"/>
		<path class="st1" d="M246.66,147.44c-24.45,22.5-44.67,49.27-58.41,79.32c-16.19,35.42-26.65,80.79,4.83,110.15
			c58.12,54.21,132.56,6.48,146.6,59.55c15.91,60.11,65.28,110.24,150.66,76.6C652.52,409.18,706.1,117.4,593.01,51.69
			C522.61,10.79,376.51,27.95,246.66,147.44z"/>
	</g>
</g>
<g id="Background_complete">
	<g>
		<g>
			<g>
				<g>
					<g>
						<g>
							<path class="st2" d="M631.72,395.54H468.27c-2.92,0-5.3-2.38-5.3-5.3V152.16c0-2.92,2.38-5.3,5.3-5.3h163.45
								c2.92,0,5.3,2.38,5.3,5.3v238.08C637.02,393.16,634.64,395.54,631.72,395.54z M468.27,147.08c-2.8,0-5.08,2.28-5.08,5.07
								v238.08c0,2.8,2.28,5.08,5.08,5.08h163.45c2.8,0,5.08-2.28,5.08-5.08V152.16c0-2.8-2.28-5.07-5.08-5.07H468.27z"/>
						</g>
					</g>
					<g>
						<g>
							<path class="st2" d="M443.24,395.54H279.79c-2.92,0-5.3-2.38-5.3-5.3V152.16c0-2.92,2.38-5.3,5.3-5.3h163.45
								c2.92,0,5.3,2.38,5.3,5.3v238.08C448.54,393.16,446.16,395.54,443.24,395.54z M279.79,147.08c-2.8,0-5.07,2.28-5.07,5.07
								v238.08c0,2.8,2.28,5.08,5.07,5.08h163.45c2.8,0,5.08-2.28,5.08-5.08V152.16c0-2.8-2.28-5.07-5.08-5.07H279.79z"/>
						</g>
					</g>
				</g>
				<g>
					<g>
						<g>
							<path class="st2" d="M254.88,395.54H91.43c-2.92,0-5.3-2.38-5.3-5.3V152.16c0-2.92,2.38-5.3,5.3-5.3h163.45
								c2.92,0,5.3,2.38,5.3,5.3v238.08C260.18,393.16,257.8,395.54,254.88,395.54z M91.43,147.08c-2.8,0-5.07,2.28-5.07,5.07
								v238.08c0,2.8,2.28,5.08,5.07,5.08h163.45c2.8,0,5.08-2.28,5.08-5.08V152.16c0-2.8-2.28-5.07-5.08-5.07H91.43z"/>
						</g>
					</g>
				</g>
			</g>
			<g>
				<g>
					<rect x="22.47" y="450.76" class="st2" width="678.22" height="0.11"/>
				</g>
			</g>
		</g>
		<g>
			<rect x="613.54" y="477.32" class="st3" width="50.4" height="0.38"/>
			<rect x="470.13" y="481.45" class="st3" width="13.23" height="0.38"/>
			<rect x="59.22" y="465.75" class="st3" width="65.72" height="0.38"/>
			<rect x="138.49" y="465.75" class="st3" width="9.64" height="0.38"/>
			<rect x="179.44" y="472.18" class="st3" width="142.53" height="0.38"/>
		</g>
	</g>
	<g id="freepik--tree-1--inject-2_00000093145981167557091850000010285804203180547725_">
		<path class="st4" d="M299.46,250.98c-1.48-0.9-3.2-1.33-4.93-1.24c-1.06-1.29-0.21-3.23,0.82-4.54c1.03-1.31,2.29-2.81,1.9-4.43
			c-0.61-2.44-4.03-2.54-6.51-2.06c-0.91-1.47-0.89-3.31-1.33-5.01c-0.44-1.7-1.9-3.49-3.51-3.25c-1.62,0.24-2.61,2.03-4.21,2.41
			c-1.85,0.43-3.46-1.2-4.91-2.43c-0.18-0.15-0.37-0.29-0.56-0.42l0,0c0.3-5.09,5.14-4.27,9.26-4.97c3.22-0.53-5.31-8.67,1.19-11.3
			c1.26-0.35,2.37-1.11,3.13-2.17c0.67-1.65,0.08-3.54-1.42-4.5c-1.48-0.89-3.2-1.32-4.92-1.24c-1.06-1.29-0.21-3.23,0.82-4.54
			c1.03-1.31,2.28-2.81,1.9-4.43c-0.62-2.44-4.03-2.54-6.51-2.06c-0.91-1.47-0.89-3.31-1.33-5.01c-0.44-1.7-1.89-3.49-3.51-3.25
			c-1.63,0.24-2.61,2.03-4.21,2.41c-1.85,0.43-3.46-1.2-4.91-2.43c-1.45-1.23-3.99-2-4.99-0.38c-0.6,0.95-0.24,2.3-0.87,3.25
			c-1.07,1.63-3.64,0.63-5.23-0.54s-4.14-2.23-5.23-0.61c-0.28,0.53-0.49,1.1-0.62,1.69c-0.15,0.42-0.37,0.81-0.64,1.17
			c-0.31-1.13-0.41-2.35-0.7-3.49c-0.44-1.69-1.89-3.49-3.51-3.25c-1.63,0.24-2.61,2.04-4.21,2.41c-1.85,0.44-3.46-1.2-4.91-2.43
			c-1.45-1.23-3.99-2-4.99-0.37c-0.6,0.95-0.24,2.3-0.87,3.25c-0.13,0.21-0.31,0.4-0.52,0.53c-0.55-0.11-1.1-0.11-1.64-0.11
			c-1.06-1.28-0.21-3.21,0.82-4.53c1.03-1.32,2.29-2.82,1.9-4.43c-0.61-2.45-4.03-2.54-6.51-2.06c-0.91-1.49-0.89-3.32-1.33-5.01
			c-0.44-1.69-1.89-3.5-3.51-3.25c-1.63,0.25-2.61,2.04-4.21,2.42c-1.85,0.43-3.46-1.19-4.91-2.43c-1.45-1.24-3.99-2-4.99-0.38
			c-0.6,0.94-0.24,2.3-0.87,3.25c-1.07,1.62-3.62,0.62-5.22-0.55c-1.59-1.17-4.15-2.23-5.24-0.61c-0.28,0.54-0.49,1.11-0.62,1.7
			c-0.75,2.17-3.1,3.25-4.92,4.64c-1.82,1.39-3.26,4.15-1.72,5.84c0.76,0.85,2.1,1.16,2.48,2.24c0.47,1.28-0.89,2.53-1.97,3.45
			c-1.42,1.58-1.84,3.82-1.08,5.8c-0.54,0.49-1.18,0.86-1.88,1.08c-1.85,0.43-3.46-1.2-4.91-2.43c-1.45-1.23-3.99-2-4.99-0.38
			c-0.6,0.94-0.24,2.3-0.87,3.25c-1.07,1.63-3.62,0.63-5.22-0.54c-1.59-1.17-4.15-2.23-5.24-0.61c-0.28,0.53-0.49,1.1-0.62,1.69
			c-0.75,2.17-3.1,3.25-4.92,4.64c-1.82,1.39-3.26,4.15-1.72,5.86c0.73,0.85,1.98,1.19,2.42,2.17c-1.28-0.51-2.75-0.38-3.35,0.57
			c-0.6,0.95-0.24,2.3-0.87,3.25c-1.07,1.63-3.62,0.63-5.22-0.54c-1.59-1.17-4.15-2.23-5.24-0.61c-0.28,0.54-0.49,1.11-0.62,1.7
			c-0.75,2.17-3.1,3.23-4.92,4.63c-1.82,1.4-3.26,4.16-1.72,5.86c0.76,0.83,2.1,1.16,2.48,2.24c0.48,1.28-0.88,2.53-1.96,3.45
			c-1.8,1.52-2.13,6.08,0.25,7.34c1,0.52,2.48,0.79,2.7,1.78c0.22,0.99-0.78,1.75-1.44,2.5c-0.15,0.2-0.29,0.41-0.41,0.62
			c-1.25,2.28-0.42,5.14,1.85,6.39c0.57,0.26,1.27,0.49,1.49,1.08c0.08,0.45,0.03,0.9-0.14,1.32c-0.23,0.83-0.3,1.69-0.23,2.55
			c0,0.29,0.11,0.58,0.31,0.79c0.22,0.16,0.48,0.23,0.75,0.22c3.43,0.15,5.07-1.06,7.17,1.92c0.18,0.3,0.43,0.56,0.72,0.76
			c0.29,0.15,0.62,0.22,0.94,0.23c2.35,0.2,3.87-1.27,6.04-1.55c3-0.38,3.62,1.16,6.26,2.4c4.13,1.95,6.14,0.75,6.92-2.07
			c0.21-0.8,0.33-1.62,0.37-2.44c-0.02-1.24,0.51-2.43,1.44-3.25h0.07c2.2,0.18,3.69-1.07,5.62-1.46l1.23-0.13
			c2.29-0.02,3.05,1.36,5.42,2.44c1.09,0.58,2.3,0.9,3.53,0.94c0.35,1.28-0.91,2.43-2,3.32c-1.79,1.53-2.11,6.09,0.26,7.34
			c0.99,0.52,2.48,0.81,2.7,1.79c0.22,0.98-0.78,1.75-1.44,2.49c-0.15,0.19-0.29,0.4-0.41,0.62c-1.26,2.28-0.43,5.15,1.85,6.41
			c0.56,0.27,1.27,0.49,1.47,1.08c0.09,0.45,0.05,0.91-0.13,1.33c-0.24,0.82-0.32,1.68-0.23,2.54c0,0.3,0.1,0.58,0.3,0.8
			c0.22,0.15,0.49,0.22,0.76,0.21c3.43,0.15,5.07-1.06,7.17,1.92c0.18,0.3,0.42,0.56,0.72,0.76c0.29,0.14,0.62,0.23,0.94,0.24
			c2.35,0.2,3.87-1.28,6.04-1.55c2.99-0.38,3.62,1.16,6.25,2.4c4.14,1.94,6.15,0.75,6.93-2.07c0.21-0.8,0.33-1.62,0.37-2.45
			c0.3-5.07,5.14-4.27,9.27-4.96c0.29-0.02,0.55-0.2,0.67-0.47h0.26c2.35,0.2,3.87-1.27,6.04-1.55c3-0.38,3.62,1.16,6.26,2.4
			c4.13,1.95,6.14,0.75,6.92-2.07c0.21-0.8,0.33-1.62,0.37-2.45c0.27-3.95,3.25-4.34,6.51-4.64c0.1,1.56,1.01,2.96,2.39,3.7
			c0.57,0.26,1.27,0.49,1.49,1.08c0.08,0.45,0.03,0.9-0.14,1.32c-0.23,0.83-0.3,1.68-0.23,2.54c0,0.3,0.1,0.58,0.3,0.8
			c0.22,0.15,0.49,0.22,0.76,0.22c3.43,0.15,5.07-1.06,7.17,1.92c0.18,0.3,0.43,0.56,0.72,0.76c0.29,0.15,0.62,0.22,0.94,0.23
			c2.35,0.2,3.87-1.27,6.04-1.55c3-0.38,3.62,1.16,6.26,2.4c4.13,1.95,6.14,0.75,6.92-2.07c0.21-0.8,0.33-1.62,0.37-2.44
			c0.3-5.09,5.15-4.27,9.27-4.97c3.22-0.53-5.32-8.67,1.18-11.3c1.26-0.35,2.37-1.11,3.13-2.17
			C301.38,253.73,300.84,251.95,299.46,250.98z"/>
		<g>
			<path class="st2" d="M179.7,281.29c-1.23-0.75-2.67-1.11-4.11-1.03c-0.88-1.08-0.16-2.68,0.69-3.79c0.85-1.1,1.9-2.29,1.57-3.69
				c-0.48-2.04-3.34-2.11-5.39-1.71c-0.77-1.24-0.75-2.78-1.15-4.18c-0.4-1.4-1.49-2.87-2.93-2.7c-1.43,0.17-2.18,1.7-3.51,2.01
				c-1.54,0.37-2.88-1-4.08-2.02c-1.2-1.02-3.33-1.66-4.17-0.32c-0.49,0.8-0.2,1.94-0.71,2.73c-0.91,1.38-3.03,0.52-4.36-0.46
				c-1.33-0.98-3.44-1.86-4.36-0.5c-0.23,0.45-0.4,0.92-0.52,1.41c-0.62,1.81-2.57,2.71-4.1,3.87c-1.53,1.16-2.73,3.44-1.43,4.88
				c0.63,0.7,1.74,0.99,2.07,1.87c0.39,1.15-0.75,2.11-1.64,2.87c-1.49,1.27-1.77,5.08,0.21,6.12c0.84,0.44,2.05,0.57,2.29,1.49
				c0.24,0.92-0.64,1.46-1.15,2.09c-1.33,1.71-1.02,4.18,0.7,5.51c0.16,0.12,0.33,0.24,0.51,0.33c0.47,0.23,1.06,0.41,1.23,0.92
				c0.09,0.38,0.05,0.79-0.11,1.15c-0.19,0.69-0.25,1.4-0.18,2.11c-0.01,0.25,0.09,0.48,0.25,0.67c0.18,0.13,0.41,0.2,0.63,0.18
				c2.85,0.13,4.22-0.88,5.97,1.6c0.15,0.25,0.36,0.46,0.6,0.63c0.25,0.12,0.52,0.19,0.79,0.19c1.96,0.16,3.24-1.06,5.04-1.28
				c2.48-0.32,3.01,0.96,5.2,2c3.44,1.62,5.13,0.62,5.74-1.73c0.17-0.66,0.27-1.35,0.31-2.03c0.25-4.23,4.29-3.57,7.72-4.14
				c2.68-0.45-4.42-7.22,0.99-9.41c1.06-0.28,1.98-0.93,2.62-1.82C181.48,283.69,180.97,282.08,179.7,281.29z"/>
		</g>
		<path class="st5" d="M232.16,257.89l4.42-14.02l8.61-11.07l-1.47-1.23l-8.12,8.85l-1.44-14.02h-2.35c0,0,1.93,16.66-0.85,22.76
			c0,0-10.09,25.68-16.24,31.24c-0.35,0.32-0.65,0.69-0.9,1.09c-1.84-4.73-4.24-9.22-7.14-13.38c2.43-6.21,7.63-19.85,9.4-27.15
			c1.39-5.67,2.43-11.42,3.11-17.22l-2.01-0.22c0,0-5.71,26.97-15.15,39.24c-2.8-2.57-5.97-4.7-9.4-6.32
			c-0.77-3.79-1.09-10.39,1.42-20.68l-2-0.51c0,0-3.81,8.71-3.47,19.17c-1.42-0.71-2.79-1.52-4.1-2.43
			c-9.1-6.4-15.49-17.96-15.49-17.96l-1.86,1.81c0,0,7.76,17.05,18.58,22.74c10.82,5.69,17.83,19.57,18.39,23.21
			c0.15,1.04,1.4,9.28-0.33,23.71c-11.51-4.91-34.33-18.44-35.84-19.68l-2.66,3.57l36.91,26.41c0.58,35.19-2.08,71.81-1.98,79.73
			h21.49c-0.53-10.93-5.06-52.02-3.05-94.97c0.17-1.06,0.35-2.26,0.52-3.67c1.68-13.17,11.68-31.17,16.43-36.29
			c5.1-5.48,10.76-9.83,10.76-9.83l-1.31-2.8L232.16,257.89z"/>
	</g>
	<g>
		<path class="st6" d="M402.29,149.11c0-2.81-2.28-5.09-5.09-5.09l0,0c-0.49,0-0.98,0.07-1.46,0.22c0.07-0.52,0.11-1.04,0.11-1.56
			c0-5.95-4.83-10.78-10.78-10.78c-0.66,0-1.33,0.06-1.98,0.18c-2.71-4.45-8.5-5.86-12.95-3.15c-2.77,1.69-4.48,4.67-4.52,7.92
			h-0.16c-4.8,0.15-8.56,4.17-8.41,8.97c0.15,4.58,3.83,8.26,8.41,8.41h31.89C400.11,154.14,402.3,151.87,402.29,149.11z"/>
		<path class="st2" d="M484.18,199.68c0-2.61-2.11-4.72-4.72-4.72l0,0c-0.46,0-0.91,0.07-1.35,0.2c0.07-0.48,0.1-0.97,0.1-1.45
			c0-5.52-4.48-10-10-10c-0.62,0-1.23,0.06-1.84,0.17c-2.51-4.12-7.89-5.43-12.01-2.92c-2.57,1.56-4.15,4.34-4.2,7.34h-0.15
			c-4.45,0.14-7.94,3.87-7.8,8.32c0.14,4.25,3.55,7.66,7.8,7.8h29.58C482.16,204.35,484.19,202.25,484.18,199.68z"/>
		<path class="st7" d="M212.92,133.03c0-1.57-1.27-2.84-2.84-2.84l0,0c-0.28,0-0.55,0.04-0.81,0.12c0.04-0.29,0.06-0.58,0.06-0.87
			c0-3.32-2.69-6.01-6.01-6.01c-0.37,0-0.74,0.03-1.1,0.1c-1.51-2.48-4.74-3.27-7.22-1.76c-1.54,0.94-2.5,2.61-2.52,4.42h-0.09
			c-2.68,0.09-4.77,2.33-4.69,5c0.08,2.55,2.13,4.61,4.69,4.69h17.79C211.7,135.83,212.92,134.57,212.92,133.03z"/>
		<path class="st6" d="M625.6,148.88c0-2.73-2.22-4.95-4.95-4.95l0,0c-0.48,0-0.96,0.07-1.42,0.21c0.07-0.5,0.11-1.01,0.11-1.52
			c0-5.79-4.69-10.48-10.48-10.48c-0.65,0-1.29,0.06-1.93,0.18c-2.63-4.32-8.27-5.69-12.59-3.06c-2.69,1.64-4.35,4.55-4.4,7.7h-0.16
			c-4.66,0.15-8.32,4.05-8.17,8.72c0.14,4.45,3.72,8.03,8.17,8.17h31C623.48,153.77,625.61,151.57,625.6,148.88z"/>
		<path class="st2" d="M359.44,209.03c0-3.09-2.51-5.6-5.6-5.6l0,0c-0.54,0-1.08,0.08-1.6,0.24c0.08-0.57,0.12-1.14,0.12-1.72
			c0-6.54-5.31-11.85-11.85-11.85c-0.73,0-1.46,0.07-2.18,0.2c-2.97-4.89-9.35-6.44-14.23-3.46c-3.04,1.85-4.92,5.14-4.97,8.7h-0.18
			c-5.27,0.17-9.41,4.58-9.24,9.86c0.16,5.03,4.21,9.08,9.24,9.24h35.05C357.04,214.56,359.46,212.07,359.44,209.03z"/>
		<g id="freepik--Streetlight--inject-81_00000097486167430927457230000003568555652760028844_">
			<path class="st2" d="M576.72,395.24h5.83V187.05c-0.01-10.46-8.49-18.93-18.94-18.94h-5.15v5.83h5.15
				c7.24,0.01,13.1,5.87,13.11,13.11V395.24z"/>
			<path class="st3" d="M521.12,175.25h42l-0.96-6.33c-0.32-2.13-1.99-3.79-4.12-4.11c-2.77-0.41-6.39-0.9-8.09-0.93
				c-4.96-0.11-17.22,1.18-23.2,1.85c-2.03,0.24-3.69,1.71-4.17,3.69L521.12,175.25z"/>
			<path class="st8" d="M525.56,179.68h33.12c2.45,0,4.43-1.99,4.43-4.43l0,0h-42C521.12,177.7,523.11,179.68,525.56,179.68z"/>
			<line class="st9" x1="548.89" y1="188.9" x2="556.77" y2="207.48"/>
			<path class="st10" d="M541.18,188.9c0,10.73-0.66,19.65-0.66,30.38"/>
			<line class="st10" x1="534.61" y1="188.07" x2="523.11" y2="203.18"/>
		</g>
	</g>
</g>
<g id="Shadow">
	<g>
		<g>
			<path class="st8" d="M648.06,495.11c0,3.06-106.32,5.55-237.47,5.55s-237.47-2.48-237.47-5.55c0-3.06,106.32-5.55,237.47-5.55
				S648.06,492.05,648.06,495.11z"/>
		</g>
	</g>
</g>
<g id="Device">
	<g>
		<g>
			<g>
				<path class="st11" d="M162.47,378.9h-78.9c-9.4,0-17.03-7.62-17.03-17.03V173.72c0-7.26,5.88-13.14,13.14-13.14h86.68
					c7.25,0,13.14,5.88,13.14,13.14v188.15C179.5,371.28,171.87,378.9,162.47,378.9z"/>
				<path class="st0" d="M146.44,165.48l-1.81,3.57h-44.2l-2.63-3.57H76.91c-3.34,0-6.05,2.68-6.05,5.98v192.59
					c0,4.99,4.09,9.04,9.15,9.04h86.04c5.05,0,9.15-4.05,9.15-9.04V171.46c0-3.3-2.71-5.98-6.05-5.98H146.44z"/>
				<circle class="st7" cx="121.15" cy="165.14" r="1.82"/>
				<path class="st7" d="M125.65,165.14c0,0.5-0.41,0.91-0.91,0.91c-0.5,0-0.91-0.41-0.91-0.91s0.41-0.91,0.91-0.91
					C125.25,164.23,125.65,164.64,125.65,165.14z"/>
			</g>
			<path class="st4" d="M169.14,165.48h-22.7l-1.81,3.57h-44.2l-2.63-3.57H76.91c-3.34,0-6.05,2.68-6.05,5.98v49.27h104.33v-49.27
				C175.19,168.16,172.48,165.48,169.14,165.48z"/>
		</g>
		<g id="freepik--Screen--inject-5_00000113330346380532542180000004843635342039758212_">
			<rect x="87.63" y="169.94" class="st12" width="1.38" height="1.84"/>
			<rect x="85.37" y="169.33" class="st12" width="1.38" height="2.45"/>
			<rect x="83.13" y="168.71" class="st12" width="1.38" height="3.07"/>
			<rect x="80.88" y="168.11" class="st12" width="1.38" height="3.68"/>
			<rect x="160.85" y="169.27" class="st12" width="0.82" height="1.84"/>
			<rect x="162.23" y="168.6" class="st12" width="6.51" height="3.18"/>
			<rect x="70.97" y="212.48" class="st13" width="104.17" height="154.26"/>
			<path class="st14" d="M175.15,236.22v-7.72l-24.5,22.59l-25.88-8.62l16.22-29.99h-6.52l-6.91,12.77L77.4,212.48h-6.41v4.15
				l18.87,4.79l-15.31,26.97l35.93,8.45l-4.27,7.88l-35.23-8.83v5.78l32.47,8.14l-10.51,19.45l-16.6-4.66l-5.37,3.38v6.7l6.3-3.99
				l12.92,3.62l-19.23,35.56v12.07l12.58-23.25l17.11,4.85v21.23l34.8,21.99h11.44l-40.45-25.5v-16.08l68.7,19.47v-5.83l-20.5-5.83
				l6.27-33.32l14.27,3.61v-5.77l-38.51-9.74l17.08-31.78L175.15,236.22z M83.25,244.68l12.4-21.77l29.17,7.44l-11.58,21.39
				L83.25,244.68z M155.26,298.24l-6.2,33.18l-62.78-17.8l17.58-32.52l6.73,7.18l21.14,3.99L155.26,298.24z M130.83,286.43
				l-17.21-3.26l-6.89-7.37l15.31-28.32l25.2,8.39L130.83,286.43z"/>
			<path class="st12" d="M157.06,203.87H96.62c-2.15,0-3.89-1.73-3.89-3.88c0,0,0,0,0-0.01l0,0c0-2.15,1.74-3.89,3.89-3.89
				c0,0,0,0,0.01,0h60.44c2.15,0.01,3.88,1.75,3.87,3.9c0,0.01,0,0.01,0,0.02l0,0C160.92,202.15,159.19,203.86,157.06,203.87z"/>
			<path class="st7" d="M88,197.23L88,197.23c-1.16-1.16-3.05-1.16-4.21,0l0,0c-1.14,1.16-1.14,3.02,0,4.18l2.09,2.09l2.09-2.09
				C89.12,200.26,89.13,198.4,88,197.23z M86.83,200.28c-0.52,0.52-1.36,0.52-1.87,0c-0.52-0.52-0.52-1.36,0-1.87
				c0.52-0.52,1.35-0.52,1.87,0c0.53,0.51,0.53,1.36,0.02,1.88c-0.01,0.01-0.01,0.01-0.02,0.02V200.28z"/>
			<path class="st7" d="M151.21,330.26c-2.17,0-3.93,1.7-3.93,3.79c0,2.09,1.76,3.79,3.93,3.79c2.17,0,3.93-1.7,3.93-3.79l0,0
				C155.14,331.96,153.38,330.26,151.21,330.26z M151.21,336.52c-1.41,0-2.56-1.1-2.56-2.47c0-1.36,1.14-2.47,2.56-2.47
				c1.41,0,2.56,1.1,2.56,2.47l0,0C153.76,335.41,152.62,336.52,151.21,336.52z"/>
			<path class="st7" d="M152.76,334.05c0,0.83-0.7,1.5-1.55,1.5c-0.86,0-1.55-0.67-1.55-1.5c0-0.83,0.7-1.5,1.55-1.5
				C152.07,332.55,152.76,333.22,152.76,334.05L152.76,334.05z"/>
			<path class="st13" d="M137.76,225.78l-8.27,15.43l21.16,6.26l11.68-11.67C153.94,232.94,145.73,229.6,137.76,225.78z"/>
			<path class="st13" d="M175.15,212.48v10.53l-10.35,10.37c-6.96-2.39-13.83-4.98-20.52-7.98c-1.7-0.76-3.38-1.54-5.04-2.35
				l5.64-10.57H175.15z"/>
			<polygon class="st13" points="123.06,250.88 142.71,257.27 132.88,277.11 112.94,270.92 			"/>
			<path class="st13" d="M142.72,285.03c0.17-0.53,9.65-19.48,9.65-19.48l14.06,4.22l2.48,21.43L142.72,285.03z"/>
			<polygon class="st13" points="155.82,261.76 170.54,265.55 171.72,249.43 158.43,256.44 			"/>
			<path class="st13" d="M113.95,314.41c0.3-0.24,6.82-19.65,6.82-19.65l30.44,5.17l-5.07,25.91L113.95,314.41z"/>
			<path class="st13" d="M97.57,303.32l9.18,2.92l-4.59,8.17c0,0-9.67-2.14-9.67-2.77C92.49,311.01,97.57,303.32,97.57,303.32z"/>
			<path class="st13" d="M98.07,327.9c-0.22,0.53-5.8,38.84-5.8,38.84h-21.3l0.64-13.04l12.89-28.63L98.07,327.9z"/>
			<path class="st13" d="M175.15,346.81v16.18l-23.28,0.89l-20.24-14.55c0,0,3.48-9.67,4.52-12.75L175.15,346.81z"/>
			<path class="st13" d="M133.03,335.73l-17.48-4.6l-2.48,8.29l15.82,8.26C128.89,347.68,133.03,336.52,133.03,335.73z"/>
			<polygon class="st13" points="175.15,313.61 175.15,331.28 159.06,327.9 162.34,311.17 			"/>
			<polygon class="st13" points="78.9,279.76 84,268.5 98.2,272.54 92.49,284.3 			"/>
			<polygon class="st13" points="91.84,240.61 98.84,228.36 117.84,233.69 111.47,246.77 			"/>
			<path class="st13" d="M129.81,212.48c-1.76,3.44-4.04,7.8-4.4,8.08c-0.36,0.28-23.86-5.47-34.24-8.08H129.81z"/>
			<polygon class="st13" points="83.99,224.77 70.97,251.02 70.97,221.51 			"/>
			<path class="st7" d="M152.77,329.49h-0.15c-0.45-0.08-0.74-0.49-0.67-0.92l5.66-31.51c-4-1.18-24.73-7.18-44.78-10.45
				c-0.18-0.03-0.35-0.11-0.47-0.24l-9.53-9.98c-0.24-0.24-0.29-0.6-0.13-0.9l11.06-20.56l-35.01-7.64
				c-0.44-0.1-0.72-0.53-0.62-0.96c0.02-0.07,0.05-0.14,0.08-0.21l11.78-20.75c0.23-0.39,0.74-0.52,1.14-0.3
				c0.4,0.22,0.54,0.71,0.31,1.1l-11.29,19.82l34.99,7.64c0.45,0.1,0.73,0.52,0.63,0.95c-0.02,0.07-0.04,0.14-0.07,0.2l-11.3,20.96
				l8.96,9.34c22.23,3.64,45.18,10.6,45.41,10.67c0.39,0.12,0.63,0.5,0.56,0.89l-5.75,32.17
				C153.52,329.21,153.17,329.49,152.77,329.49z"/>
		</g>
		<g>
			<g>
				<path class="st7" d="M94.46,215.06L94.46,215.06c-1.75-1.76-4.59-1.77-6.35-0.03c-0.01,0.01-0.02,0.02-0.03,0.03l0,0
					c-1.73,1.75-1.73,4.57,0,6.33l3.16,3.16l3.16-3.16C96.16,219.65,96.18,216.83,94.46,215.06z M92.69,219.65
					c-0.79,0.79-2.06,0.79-2.85,0c-0.79-0.79-0.79-2.06,0-2.85c0.79-0.79,2.06-0.79,2.85,0c0,0,0,0,0,0
					C93.48,217.59,93.48,218.86,92.69,219.65z"/>
			</g>
			<path class="st7" d="M144.51,236.26h-37.27c-2.08,0-3.77-1.69-3.77-3.77v-12.21c0-2.08,1.69-3.77,3.77-3.77h37.27
				c2.08,0,3.77,1.69,3.77,3.77v12.21C148.28,234.58,146.59,236.26,144.51,236.26z"/>
			<g>
				<circle class="st0" cx="113.98" cy="223.36" r="2.72"/>
				<path class="st0" d="M113.98,226.4c-2.4,0-4.35,1.95-4.35,4.35h8.7C118.32,228.35,116.38,226.4,113.98,226.4z"/>
			</g>
			<g>
				<path class="st0" d="M126.14,226.08c1.5,0,2.72-1.22,2.72-2.72s-1.22-2.72-2.72-2.72c-1.5,0-2.72,1.22-2.72,2.72
					S124.63,226.08,126.14,226.08z"/>
				<path class="st0" d="M126.14,226.4c-2.4,0-4.35,1.95-4.35,4.35h8.7C130.48,228.35,128.54,226.4,126.14,226.4z"/>
			</g>
			<g>
				
					<ellipse transform="matrix(0.3827 -0.9239 0.9239 0.3827 -120.987 265.6552)" class="st15" cx="138.3" cy="223.36" rx="2.72" ry="2.72"/>
				<path class="st15" d="M138.3,226.4c-2.4,0-4.35,1.95-4.35,4.35h8.7C142.64,228.35,140.7,226.4,138.3,226.4z"/>
			</g>
			<path class="st7" d="M105.56,216.52h-7.8c0,0,6.53,5.25,6.68,5.25S105.56,216.52,105.56,216.52z"/>
		</g>
		<path class="st13" d="M98.07,366.74c-0.67,0,5.28-12.77,5.25-13.02c-0.16-1.03,21.98,13.02,21.98,13.02H98.07z"/>
	</g>
</g>
<g id="GPS_Icon">
	<path class="st4" d="M359.46,188.4c13.5-13,34.98-12.59,47.98,0.91c12.65,13.14,12.65,33.92,0.01,47.06l-19.17,19.17
		c-2.66,2.66-6.97,2.66-9.64,0l-19.18-19.18C346.22,223.11,346.22,201.65,359.46,188.4z M383.46,228.16
		c8.95,0,16.15-7.46,15.74-16.5c-0.37-8.02-6.97-14.62-14.99-14.99c-9.04-0.42-16.5,6.79-16.5,15.74c0,0,0,0,0,0
		c0.02,8.69,7.07,15.72,15.75,15.72V228.16z"/>
	<g>
		<polyline class="st16" points="416.56,219.91 561.48,219.91 561.48,253.21 		"/>
		<circle class="st4" cx="561.48" cy="251.36" r="3.61"/>
	</g>
</g>
<g id="Speech_Bubble_2">
	<g>
		<g>
			<g>
				<g>
					<g>
						<g>
							
								<ellipse transform="matrix(0.8676 -0.4973 0.4973 0.8676 -21.419 355.1461)" class="st4" cx="656.18" cy="217.79" rx="18.17" ry="18.17"/>
						</g>
						<g>
							<polygon class="st4" points="644.02,225.34 639.37,224.82 637.46,230.4 643.26,230.11 							"/>
						</g>
					</g>
				</g>
				<path class="st17" d="M670.94,201.6c4.8,3.45,7.66,9.42,7.34,15.32"/>
				<path class="st17" d="M678.03,219.62c0.02,0.9-0.15,1.8-0.5,2.64"/>
			</g>
		</g>
	</g>
	<g>
		<path class="st7" d="M656.63,217.87c2.01,0,3.64-1.63,3.64-3.64s-1.63-3.64-3.64-3.64c-2.01,0-3.64,1.63-3.64,3.64
			S654.62,217.87,656.63,217.87z"/>
		<path class="st7" d="M656.63,218.3c-3.21,0-5.82,2.61-5.82,5.82h11.64C662.45,220.9,659.85,218.3,656.63,218.3z"/>
	</g>
</g>
<g id="Speech_Bubble_1">
	<g>
		<g>
			<g>
				<g>
					<g>
						<g>
							<g>
								
									<ellipse transform="matrix(0.3692 -0.9294 0.9294 0.3692 -60.622 413.4006)" class="st0" cx="274.21" cy="251.36" rx="18.17" ry="18.17"/>
							</g>
							<g>
								<polygon class="st0" points="281.34,263.68 280.08,268.18 285.29,270.96 285.92,265.19 								"/>
							</g>
						</g>
					</g>
					<path class="st17" d="M288.97,235.16c4.8,3.45,7.66,9.42,7.34,15.32"/>
					<path class="st17" d="M296.06,253.18c0.02,0.9-0.15,1.8-0.5,2.64"/>
				</g>
			</g>
		</g>
		<g>
			<circle class="st7" cx="274.21" cy="248.23" r="3.64"/>
			<path class="st7" d="M274.21,252.3c-3.21,0-5.82,2.61-5.82,5.82h11.64C280.03,254.91,277.42,252.3,274.21,252.3z"/>
		</g>
	</g>
</g>
<g id="Character_2">
	<g>
		<g>
			<path class="st18" d="M660.71,449.57l8.9-7.01c5.68,6.46,10.26,12.9,13.71,16.75l-2.15,5.04l-5.8-1.16
				C675.39,463.18,669.23,456.58,660.71,449.57z"/>
			<g>
				<g>
					<g>
						<g>
							<path class="st0" d="M669.24,458.85l3.46-2.21c3.54,1.79,4.25,0.36,4.69-2.82c0.93-0.76,1.93,0.22,2.21,0.48l6.25,5.65
								c0.53,0.47,0.58,1.27,0.11,1.8c-0.08,0.09-0.18,0.18-0.29,0.24c-3.06,1.95-4.51,2.87-8.31,5.29l-11.64,7.42
								c-3.17,2.02-5.87-0.76-4.75-1.89c5.05-5.04,8.11-9.42,8.84-12.29C669.96,460.02,669.47,460.01,669.24,458.85z"/>
							<path class="st19" d="M668.73,461.91c0.94-0.43,2.08-0.43,3.02,0.02"/>
							<path class="st19" d="M667.92,464.08c0.94-0.43,2.08-0.43,3.02,0.02"/>
							<path class="st19" d="M666.6,466.32c0.94-0.43,2.08-0.43,3.02,0.02"/>
						</g>
					</g>
				</g>
				<path class="st20" d="M685.96,461.76c-0.08,0.09-0.18,0.18-0.29,0.24c-3.06,1.95-4.51,2.87-8.31,5.29l-11.64,7.42
					c-1.72,1.09-3.29,0.78-4.2,0.08c0.49-0.3,23.73-14.86,23.97-15.16l0.45,0.43C686.38,460.54,686.39,461.27,685.96,461.76z"/>
			</g>
		</g>
		<g>
			<path class="st18" d="M608.2,449.31l13.8,8.51c-1.03,10.35-3.57,19.76-2.61,24.84l-4.45,3.19l-6.06-6.32
				C608.87,479.53,609.39,461.01,608.2,449.31z"/>
			<g>
				<g>
					<g>
						<g>
							<path class="st0" d="M608.33,474.96l4.11-0.09c2.1,3.37,3.45,2.52,5.47,0.02c1.19-0.16,1.54,1.2,1.64,1.56l2.4,8.07
								c0.21,0.67-0.17,1.39-0.84,1.6c-0.12,0.04-0.24,0.06-0.37,0.06c-3.63,0.08-5.34,0.11-9.85,0.21l-13.8,0.29
								c-3.76,0.08-4.62-3.69-3.08-4.08c6.94-1.69,11.83-3.84,13.94-5.92C608.33,476.33,607.92,476.07,608.33,474.96z"/>
							<path class="st19" d="M606.3,477.31c1.03,0.12,2,0.71,2.57,1.58"/>
							<path class="st19" d="M604.48,478.74c1.03,0.12,2,0.71,2.57,1.58"/>
							<path class="st19" d="M602.19,479.97c1.03,0.12,2,0.71,2.57,1.58"/>
						</g>
					</g>
				</g>
				<path class="st20" d="M621.1,486.12c-0.12,0.04-0.24,0.06-0.37,0.06c-3.63,0.08-5.34,0.11-9.85,0.21l-13.8,0.29
					c-2.04,0.04-3.21-1.04-3.63-2.11c0.57-0.01,28-0.38,28.36-0.51l0.17,0.6C622.09,485.3,621.73,485.93,621.1,486.12z"/>
			</g>
		</g>
		<g>
			<g>
				<g>
					<g>
						<path class="st18" d="M626.85,251.63c0,0-1.55-5.1,0.08-14.61c0-0.01-0.51-0.17-0.51-0.18c0.22-1.33,0.48-2.57,0.73-3.64
							c0.01-0.03,0-0.04,0-0.04l-11.72,9.21c0.63,2.91,0.22,8.73-0.14,11.2c0,0-1.1,4.53,4.72,4.07
							C624.25,257.3,626.85,251.63,626.85,251.63z"/>
						<path class="st21" d="M615.68,246.53l7.07-2.46c-0.4,2.33-2.1,5.23-7.12,6.02C615.63,250.1,615.85,247.52,615.68,246.53z"/>
					</g>
					<g>
						<path class="st18" d="M626.56,227.02c0.05,8.09,0.25,12.65-3.55,17.02c-5.71,6.58-15.68,3.64-18.15-4.29
							c-2.23-7.14-1.94-19.16,5.74-22.83C618.17,213.31,626.51,218.93,626.56,227.02z"/>
						<path class="st11" d="M626.92,217.27c-1.41-4.36-12.53-3.65-15.49-1.17c-0.44,0.37,6.37,3.23,5.96,3.11l3.17,0.86
							c0.47-0.14,1.45,0.36,2.03,1.81c0,0,0.49,12.37,4.23,15.71c2.72-1.56,2.55-6.47,3.24-9.44
							C631.1,223.71,632.26,217.24,626.92,217.27z"/>
						<path class="st18" d="M630.2,233.52c-0.5,2.12-1.94,3.8-3.48,4.7c-2.32,1.36-3.4-1.21-3.34-3.76c0.05-2.3,0.53-5.12,3.14-5.44
							C629.09,228.7,630.77,231.09,630.2,233.52z"/>
						<path class="st11" d="M615.19,230.13c0.06,0.82-0.34,1.52-0.88,1.55c-0.54,0.03-1.02-0.61-1.08-1.44
							c-0.06-0.82,0.34-1.52,0.88-1.55C614.65,228.66,615.14,229.3,615.19,230.13z"/>
						<path class="st11" d="M607.12,230.84c0.06,0.82-0.34,1.52-0.88,1.55c-0.54,0.03-1.02-0.61-1.08-1.44
							c-0.06-0.82,0.34-1.52,0.88-1.55C606.58,229.37,607.06,230.02,607.12,230.84z"/>
						<path class="st22" d="M609.72,230.2c0,0-2.33,4.27-3.05,6c1.22,0.96,3.16,0.35,3.16,0.35L609.72,230.2z"/>
						<path class="st11" d="M616.94,226.11c-0.12,0.06-0.27,0.05-0.39-0.03c-1.43-0.97-2.76-0.44-2.77-0.44
							c-0.2,0.08-0.43-0.01-0.51-0.21c-0.08-0.2,0.01-0.42,0.21-0.5c0.07-0.03,1.73-0.69,3.51,0.51c0.18,0.12,0.22,0.36,0.1,0.54
							C617.05,226.04,617,226.08,616.94,226.11z"/>
						<path class="st23" d="M612.71,238.99c1.34-0.08,2.33-0.82,3.3-1.88"/>
					</g>
					<path class="st24" d="M628.21,231.41c-0.36-0.46-1.03-0.59-1.58-0.41c-0.55,0.18-0.99,0.61-1.31,1.1
						c-0.37,0.59-0.59,1.28-0.62,1.97"/>
				</g>
				<path class="st11" d="M603.32,227.6c-0.07-0.01-0.14-0.04-0.2-0.1c-0.16-0.14-0.18-0.39-0.03-0.55c1.41-1.6,3.17-1.33,3.25-1.33
					c0.21,0.03,0.36,0.23,0.33,0.44c-0.03,0.21-0.22,0.35-0.43,0.32c-0.07-0.01-1.43-0.2-2.56,1.08
					C603.57,227.58,603.44,227.62,603.32,227.6z"/>
			</g>
			<g>
				<path class="st11" d="M628.34,213.65c-0.75-1.75-3.12-1.95-4.86-1.43c-0.1-2.21-3.08-3.24-4.88-3.02
					c-1.87,0.22-2.49,1.03-2.49,1.03c0.15,0.02-0.66-1.04-1.14-1.45c-1.77-1.5-4.4-1.78-6.38-0.67c-1.98,1.11-3.21,3.53-2.99,5.9
					c-1.27-1.09-3.35-0.86-4.35,0.47c-0.99,1.33-0.71,3.53,0.59,4.57c-1.37,0.2-2.4,1.76-2.11,3.19c0.29,1.43,1.84,2.45,3.18,2.09
					c0.22,1.62,0.57,3.64,0.8,5.26l1.66-6.17c1.09-0.49,1.25-1.02,1.38-2.27c0.96,1.47,2.24,1.23,3.9,1.02
					c1.66-0.21,3.15-1.46,3.71-3.11c1,1.53,2.75,2.61,4.49,2.42c1.74-0.19,3.3-1.87,3.13-3.71c1.17,1.48,3.4,1.89,4.93,0.9
					C628.44,217.67,629.09,215.4,628.34,213.65z"/>
			</g>
		</g>
		<g>
			<path class="st0" d="M640.58,251.12c0,0,7.19,0.2,10.08,8.22c2.66,7.39,9.43,23.68,9.43,23.68l-16.19,4.74l-6.45-19.29
				L640.58,251.12z"/>
		</g>
		<g>
			<path class="st11" d="M614.13,328.05l9.76,20.83c0,0-15.5,46.65-16.43,51.52c-0.93,4.86-1.36,66.12-1.36,66.12l17.24,0.03
				l6.76-59.76c0,0,20.94-50.75,22.47-54.88c2.87-7.72-0.14-18.11-0.14-18.11l-5.33-7.69L614.13,328.05z"/>
			<path class="st11" d="M604.66,338.49c0,1.89,6.73,66.51,7.83,66.75c1.1,0.23,49.84,53.53,49.84,53.53l13.84-12.15l-35.76-48.48
				l-3.96-43.57l-1.39-27.39l-31.19,2.3L604.66,338.49z"/>
			<polygon class="st25" points="628.31,422.09 629.17,406.91 639.19,384.71 639.19,384.71 631.67,408.18 630.95,424.26 			"/>
			<polygon class="st25" points="610.24,390.5 623.89,348.87 619.14,344.53 620.65,350.5 609.65,385.56 			"/>
		</g>
		<g>
			<g>
				<g>
					<path class="st18" d="M563.08,271.35l21.12,19.38l9.84-18.32c0,0,10.74,10.6,10.37,10.76c-0.37,0.16-12.64,27.03-21.49,22.21
						c-8.85-4.82-23.82-29.07-23.82-29.07L563.08,271.35z"/>
					<path class="st14" d="M584.19,290.73c0,0,1.83,2.93,1.6,5.69c0,0,0.82-1.35,0.57-3.55c-0.25-2.2-1.32-3.72-1.32-3.72
						L584.19,290.73z"/>
				</g>
				<path class="st0" d="M603.63,255.93c5.76,2.96,8.08,13.47-4.31,38.8l-14.79-11.42c2.37-6.32,4.78-9.61,8.57-17.29
					C599.12,254.11,603.63,255.93,603.63,255.93z"/>
				<path class="st0" d="M603.45,255.54c4.07-0.9,20.24-5.14,37.53-4.41l9.14,64.42c0,0,1.78,8.44,4.2,16.81
					c-16.47,9.54-39.33,11.08-51.6,5.87c0.16,0.26-0.22-6.88-0.75-17.33c-0.93-18.42-2.3-47.16-1.87-63.93
					C600.12,256.56,603.04,255.63,603.45,255.54z"/>
				<polygon class="st14" points="600.66,291.92 600.08,271.08 597.45,293.28 599.32,294.72 				"/>
				<polygon class="st14" points="644.81,287.49 643.91,287.75 638.01,271.95 642.43,290.03 645.44,290.05 				"/>
			</g>
			<g>
				<g>
					<g>
						<g>
							<g>
								<g>
									<g>
										<path class="st18" d="M565.12,274.71c0,0,1.62-2.56,1.04-5c-0.58-2.44-0.39-4.54-0.95-6.32
											c-0.55-1.78-1.56,0.53-1.85,1.86c-0.29,1.34-0.62,2.85-1.59,2.47c-0.97-0.38-6.59-7.34-7.99-7.71
											c-1.4-0.37-0.85,1.04-0.85,1.04s-1.41-1.65-2.22-1.27c-0.21,0.1-0.54,0.67-0.01,1.52c1.18,1.92,3.86,5.83,3.86,5.83
											c-0.15-0.23-3.81-4.81-4.44-5.43c-0.83-0.8-1.64-0.76-2.09-0.26c-0.64,0.71,3.7,6.55,3.71,6.92c0,0-2.39-3.45-3.61-3.32
											c-1.23,0.13,0.16,2.38,1.75,4.13c1.46,1.61,3.91,5.14,5.56,6.63c2.03,1.84,3.8,2.61,6.16,1.59
											C563.96,276.39,565.12,274.71,565.12,274.71z"/>
									</g>
								</g>
							</g>
						</g>
					</g>
				</g>
				<path class="st26" d="M553.16,261.24c1.1,1.35,2.13,2.76,3.1,4.21"/>
				<path class="st26" d="M552.63,269.74c1.32-1.83,3.18-3.25,5.29-4.04"/>
				<path class="st26" d="M561.48,268.81c-0.62,0.68-0.99,1.57-1.04,2.49c-0.05,0.92,0.24,1.84,0.79,2.58"/>
			</g>
		</g>
		<g>
			<path class="st18" d="M658.88,283.37c0,0,4.87,11.54,6.94,21.89c0.94,4.71-2.82,7.72-6.67,8.65
				c-12.12,2.93-39.43,2.94-39.43,2.94l-0.72-8.33l31.45-6.81l-5.65-14.23L658.88,283.37z"/>
			<path class="st11" d="M619.66,318.62l-10.31,1.16c-0.35,0.04-0.7-0.08-0.96-0.33l-15.69-15.51c-0.65-0.64-0.35-1.74,0.53-1.97
				l9.07-2.34c0.4-0.1,0.82,0.01,1.12,0.3l16.93,16.69C621.05,317.31,620.64,318.51,619.66,318.62z"/>
			<path class="st18" d="M620.62,308.56c0,0-0.29-1.21-4.85-2.6c-3.47-1.06-6.91-4.3-7.47-4.19c-0.56,0.11-1.17,1.88,0.27,3.44
				c1.44,1.56,2.93,2.44,2.55,3.04c-0.92,1.44-12.19,0.27-12.39,1.5c-0.19,1.23,1.96,4.75,7.99,7.11
				c6.04,2.35,14.31-0.01,14.31-0.01L620.62,308.56z"/>
		</g>
	</g>
</g>
<g id="Character_1">
	<g>
		<g>
			<g>
				<polygon class="st11" points="563.73,445.67 88.2,456.82 88.2,375.49 568.3,375.49 				"/>
				<polygon class="st27" points="563.73,445.67 88.2,456.82 88.2,375.49 568.3,375.49 				"/>
				<g id="freepik--Car--inject-7_00000119820043546283482960000011382544754475276446_">
					<path class="st4" d="M69.91,396.36v41.25c0,8.84,5.76,16.64,14.2,19.25l3.36,1.02c2.07,0.64,4.23,0.94,6.4,0.89l22.21-0.52
						c-2.64-9.23-2.87-18.98-0.67-28.33c7.11-30.25,37.39-49.01,67.64-41.9c30.25,7.11,49.01,37.39,41.9,67.64l225.98-5.37
						c-0.37-2.64-0.54-5.3-0.53-7.97c0.14-31.07,25.43-56.15,56.51-56.02c31.07,0.14,56.15,25.43,56.02,56.51
						c0,1.1-0.09,2.18-0.09,3.26c0.3-0.12,0.61-0.24,0.9-0.38l7.73-3.45c7.62-3.44,12.52-11.03,12.53-19.4v-84.01
						c0-7.9-4.38-15.15-11.37-18.83l-58.08-30.54c-0.66-0.35-1.18-0.94-1.44-1.65c-0.58-1.59,0.23-3.35,1.82-3.93l7.11-2.55
						c0.6-0.2,1.03-0.73,1.11-1.36c0.12-0.91-0.52-1.74-1.43-1.86c-27.6-3.85-134.94-17.89-191.36-10.99
						c-65.09,7.97-127.46,64.45-127.46,64.45c-47.9-1.79-92.61,14.88-111.86,23.24c-6.21,2.71-10.99,7.92-13.16,14.35l-6.59,19.51
						C70.4,391.14,69.94,393.74,69.91,396.36z"/>
					<path class="st11" d="M450.98,450.28c-0.33-2.48-0.49-4.98-0.49-7.48c0-1.27,0.04-2.53,0.12-3.79l-40.86-16.72
						c-2.39-0.97-4.97-1.39-7.55-1.23l-142.13,9.33c-2.32,0.15-4.59,0.77-6.66,1.84l-27.01,13.89c-0.19,3.21-0.65,6.4-1.38,9.53
						L450.98,450.28z"/>
					<path class="st11" d="M583.99,422.83v-2.15l-23.11,7.08c1.35,4.9,2.03,9.96,2.03,15.04c0,1.1-0.09,2.18-0.09,3.26
						c0.3-0.12,0.61-0.24,0.9-0.38l7.74-3.45C579.09,438.78,583.99,431.19,583.99,422.83z"/>
					<path class="st11" d="M76.47,452.41c2.21,2.04,4.84,3.56,7.71,4.44l3.36,1.02c2.07,0.64,4.23,0.94,6.4,0.89l22.21-0.52
						c-0.8-2.81-1.38-5.67-1.73-8.57L76.47,452.41z"/>
					<path class="st11" d="M506.8,381.25c-2.55,0-5.11,0.16-7.64,0.47c-33.72,4.21-57.64,34.96-53.43,68.68l5.33-0.13
						c-0.37-2.64-0.54-5.3-0.53-7.97c0.14-31.07,25.43-56.15,56.51-56.02c31.07,0.14,56.15,25.43,56.02,56.51
						c0,1.1-0.09,2.18-0.09,3.26c0.3-0.12,0.61-0.24,0.9-0.38l4.44-2.01c0-0.3,0-0.58,0-0.86c-0.04-33.98-27.58-61.51-61.56-61.55
						L506.8,381.25z"/>
					<path class="st11" d="M170.25,381.25c-5.26,0-10.49,0.67-15.58,2c-32.89,8.59-52.58,42.22-43.99,75.11l5.46-0.12
						c-2.64-9.23-2.87-18.98-0.67-28.33c7.11-30.25,37.39-49.01,67.64-41.9c30.25,7.11,49.01,37.39,41.9,67.64l5.45-0.13
						c0.89-4.19,1.33-8.46,1.33-12.75C231.79,408.79,204.23,381.25,170.25,381.25L170.25,381.25z"/>
					<path class="st0" d="M223.81,333.93c-0.66,0.56-1.13,1.36-1.32,2.26c-0.47,2.15,0.68,4.31,2.56,4.83l23.49,6.58
						c2.08,0.59,4.24,0.75,6.37,0.48l174.17-21.58c4.24-0.54,8.19-2.73,11.18-6.21l22.85-26.62c0.76-0.88,1.24-2.02,1.37-3.25
						c0.31-3.03-1.59-5.76-4.24-6.1c-41.71-5.53-94.44-10.56-127.74-6.49C288.86,283.17,244.92,315.98,223.81,333.93z"/>
					<path class="st28" d="M224.59,333.93c-0.66,0.56-1.13,1.36-1.32,2.26c-0.47,2.15,0.68,4.31,2.56,4.83l23.49,6.58
						c2.08,0.59,4.24,0.75,6.37,0.48l170.27-11.67c4.24-0.54,10.79-8.33,15.42-14.65l22.51-28.08c0.76-0.88,1.24-2.02,1.37-3.25
						c0.31-3.03-1.59-5.76-4.24-6.1c-41.71-5.53-94.44-10.56-127.74-6.49C289.64,283.17,245.71,315.98,224.59,333.93z"/>
					<g class="st29">
						<path d="M338.37,350.53c-1.12-0.4-1.69-1.63-1.29-2.75l0,0c0.49-1.38,1.78-2.32,3.24-2.38l20.73-0.87
							c0.28-0.01,0.56,0.03,0.82,0.12c1.12,0.4,1.71,1.64,1.31,2.76l0,0c-0.5,1.38-1.79,2.32-3.26,2.38l-20.73,0.86
							C338.92,350.66,338.64,350.62,338.37,350.53z"/>
					</g>
					<path class="st4" d="M492.52,291.14c-1.83,1.63-2,4.44-0.37,6.27l4.92,5.34c0.56,0.6,1.28,1.03,2.07,1.26l60.21,16.7
						c1.05,0.28,2.13,0.43,3.21,0.43h11.96c-0.62-0.41-1.26-0.8-1.92-1.15l-58.08-30.57c0,0,0,0,0,0c-1.47-0.72-2.07-2.5-1.34-3.97
						l-18.86,4.72C493.65,290.35,493.04,290.68,492.52,291.14z"/>
					<path class="st30" d="M117.56,362.67l-20.55-2.24l-11.8,4.83c-2.48,1.02-4.34,3.15-5,5.74l0,0c-0.39,1.5-0.17,3.1,0.61,4.44
						l0.21,0.36c1.32,2.27,3.88,3.52,6.48,3.17l11.84-1.63c1.15-0.17,2.25-0.62,3.18-1.32l13.67-10.36L117.56,362.67z"/>
					<path class="st0" d="M202.91,331.54l3.27,0.93c2.54,0.73,5.28,0.14,7.3-1.57c19.04-16.11,52.15-40.82,87.87-52.34
						c0.16-0.05,0.29-0.16,0.37-0.31c0.18-0.32,0.07-0.73-0.25-0.91l-4.44-2.28C245.49,292.94,202.91,331.54,202.91,331.54z"/>
					<path class="st28" d="M202.91,331.54l3.27,0.93c2.54,0.73,5.28,0.14,7.3-1.57c19.04-16.11,52.15-40.82,87.87-52.34
						c0.16-0.05,0.29-0.16,0.37-0.31c0.18-0.32,0.07-0.73-0.25-0.91l-4.44-2.28C245.49,292.94,202.91,331.54,202.91,331.54z"/>
					<path class="st31" d="M398.17,353.29l-173.15,12.38l3.26,21.36c1,6.54,3.42,12.78,7.1,18.29l14.47,21.63l147.79-19.98
						l69.87-53.67H398.17z"/>
					<circle class="st11" cx="506.74" cy="442.8" r="46.87"/>
					<circle class="st13" cx="506.74" cy="442.8" r="28.74"/>
					<g class="st29">
						<path class="st7" d="M509.05,419.25v14.73c0,1.27-1.03,2.29-2.29,2.29h-0.01c-1.27,0-2.29-1.03-2.29-2.29v-14.73
							c0-1.27,1.03-2.29,2.29-2.29h0.01C508.02,416.95,509.05,417.98,509.05,419.25z"/>
					</g>
					<g class="st29">
						<path class="st7" d="M509.05,451.63v14.73c0,1.27-1.03,2.29-2.29,2.29h-0.01c-1.27,0-2.29-1.03-2.29-2.29v-14.73
							c0-1.27,1.03-2.29,2.29-2.29h0.01C508.02,449.33,509.05,450.36,509.05,451.63z"/>
					</g>
					<g class="st29">
						<path class="st7" d="M515.52,440.39c-1.1,0.63-2.5,0.24-3.13-0.86l0,0c0,0,0,0,0-0.01c-0.63-1.1-0.25-2.5,0.85-3.13l12.75-7.4
							c1.1-0.64,2.52-0.26,3.15,0.84l0,0c0.63,1.1,0.25,2.5-0.84,3.14l-12.75,7.4C515.54,440.38,515.53,440.38,515.52,440.39z"/>
					</g>
					<g class="st29">
						<path class="st7" d="M487.48,456.51c-1.1,0.63-2.5,0.25-3.13-0.85l0,0c0,0,0,0,0-0.01c-0.63-1.1-0.25-2.5,0.85-3.13l12.75-7.4
							c0,0,0,0,0,0c1.1-0.64,2.5-0.27,3.14,0.83l0,0c0.64,1.1,0.27,2.51-0.83,3.15L487.48,456.51
							C487.49,456.51,487.49,456.51,487.48,456.51z"/>
					</g>
					<g class="st29">
						<path class="st7" d="M525.99,456.57l-12.75-7.4c-1.1-0.64-1.48-2.05-0.84-3.15l0,0c0.64-1.1,2.05-1.47,3.15-0.83l12.75,7.4
							c1.09,0.64,1.47,2.04,0.84,3.14l0,0C528.5,456.83,527.09,457.21,525.99,456.57z"/>
					</g>
					<g class="st29">
						<path class="st7" d="M501.08,439.53c-0.63,1.1-2.04,1.47-3.14,0.84l-12.75-7.4c0,0,0,0-0.01,0c-1.1-0.63-1.47-2.04-0.84-3.14
							l0,0c0,0,0,0,0-0.01c0.63-1.1,2.04-1.47,3.14-0.84l12.76,7.4c0,0,0,0,0,0C501.35,437.03,501.72,438.43,501.08,439.53
							L501.08,439.53C501.08,439.53,501.08,439.53,501.08,439.53z"/>
					</g>
					<path class="st11" d="M502.89,442.79c0-2.13,1.72-3.85,3.85-3.85c0,0,0.01,0,0.01,0c2.13,0,3.86,1.73,3.86,3.86
						s-1.73,3.86-3.86,3.86s-3.86-1.73-3.86-3.86C502.89,442.8,502.89,442.79,502.89,442.79z"/>
					<circle class="st11" cx="170.25" cy="442.8" r="46.87"/>
					<circle class="st13" cx="170.25" cy="442.8" r="28.74"/>
					<g class="st29">
						<path class="st7" d="M172.54,419.25v14.73c0,1.27-1.03,2.29-2.29,2.29h-0.01c-1.27,0-2.29-1.03-2.29-2.29v-14.73
							c0-1.27,1.03-2.29,2.29-2.29h0.01C171.52,416.95,172.54,417.98,172.54,419.25z"/>
					</g>
					<g class="st29">
						<path class="st7" d="M172.54,451.63v14.73c0,1.27-1.03,2.29-2.29,2.29h-0.01c-1.27,0-2.29-1.03-2.29-2.29v-14.73
							c0-1.27,1.03-2.29,2.29-2.29h0.01C171.52,449.33,172.54,450.36,172.54,451.63z"/>
					</g>
					<g class="st29">
						<path class="st7" d="M179.01,440.39c-1.1,0.62-2.49,0.23-3.11-0.86l0,0c0,0,0,0,0,0c-0.64-1.1-0.27-2.5,0.83-3.14l12.76-7.4
							c0,0,0,0,0.01,0c1.1-0.63,2.5-0.25,3.13,0.85l0,0c0,0,0,0,0,0.01c0.63,1.1,0.25,2.5-0.85,3.13l-12.75,7.4
							C179.03,440.38,179.02,440.39,179.01,440.39z"/>
					</g>
					<g class="st29">
						<path class="st7" d="M147.85,455.67L147.85,455.67C147.85,455.67,147.85,455.66,147.85,455.67c-0.63-1.1-0.26-2.51,0.84-3.14
							l12.75-7.4c1.1-0.64,2.51-0.27,3.15,0.83l0,0c0.64,1.1,0.26,2.52-0.84,3.15l-12.75,7.4
							C149.9,457.15,148.49,456.77,147.85,455.67z"/>
					</g>
					<g class="st29">
						<path class="st7" d="M192.63,455.73c-0.63,1.1-2.04,1.47-3.14,0.84l-12.76-7.4c-1.1-0.64-1.47-2.05-0.83-3.15l0,0c0,0,0,0,0,0
							c0.64-1.1,2.04-1.47,3.14-0.83l12.75,7.4c0,0,0,0,0.01,0C192.89,453.23,193.27,454.63,192.63,455.73L192.63,455.73
							C192.63,455.73,192.63,455.73,192.63,455.73z"/>
					</g>
					<g class="st29">
						<path class="st7" d="M164.58,439.55c-0.64,1.09-2.05,1.46-3.14,0.82l-12.75-7.4c0,0,0,0-0.01,0c-1.1-0.63-1.47-2.04-0.84-3.14
							l0,0c0.64-1.1,2.05-1.48,3.15-0.84l12.75,7.4c0,0,0,0,0.01,0c1.1,0.63,1.47,2.04,0.84,3.14l0,0
							C164.59,439.54,164.58,439.54,164.58,439.55z"/>
					</g>
					<path class="st11" d="M170.25,438.94L170.25,438.94c2.13,0,3.86,1.73,3.86,3.86c0,2.13-1.73,3.86-3.86,3.86
						s-3.86-1.73-3.86-3.86C166.38,440.67,168.11,438.94,170.25,438.94z"/>
					<path class="st32" d="M579.08,354.37c1.56-0.49,2.43-2.15,1.95-3.71c-0.54-9.87-2.64-18.65-8.69-24.7
						c-0.41-1.33-1.68-2.2-3.06-2.09l-35.73,3.38c-0.62,0.07-1.21,0.33-1.67,0.75c-1.21,1.1-1.31,2.97-0.21,4.18l10.23,11.03
						c0.36,0.38,0.8,0.66,1.3,0.81l34.2,10.36C577.95,354.55,578.53,354.54,579.08,354.37z"/>
					<path class="st11" d="M222.49,336.18c-0.47,2.15,0.68,4.31,2.56,4.83l23.49,6.58c2.08,0.59,3.82,0.99,6.53,1.12l7.4-0.49
						l-6.97-37.68c-16.11,10.58-17.21,11.06-31.68,23.38C223.15,334.47,222.68,335.27,222.49,336.18z"/>
					<path class="st11" d="M375.51,276.63l-14.76,64.35l19.3-1.39l8.82-62.36C384.35,276.97,379.9,276.77,375.51,276.63z"/>
					<path class="st11" d="M436.76,327.56l27.11-33.87c0.78-0.89,1.27-2.05,1.4-3.29c0.31-3.03-1.6-5.76-4.26-6.09
						c-5.55-0.75-11.47-1.48-17.38-2.19"/>
					<g>
						<path class="st4" d="M243.85,342.72c-4.69,0.06-8.54-3.7-8.6-8.4l0,0c-0.05-3.99,2.69-7.48,6.58-8.39l11.32-2.65l2.88,18.98
							l-11.96,0.46C244,342.72,243.93,342.72,243.85,342.72z"/>
						<polygon class="st32" points="252.72,342.39 256.03,342.26 253.15,323.28 249.92,324.04 						"/>
					</g>
				</g>
				<path class="st33" d="M379.65,339.59c0.14,6.67,0.07,13.72-0.65,17.33c-1.6,8.01-14.09,66.59-14.09,66.59"/>
				<path class="st33" d="M222.38,337.59c0,0,3.73,50.65,9.41,60.9c5.54,9.99,21.6,33.74,21.6,33.74"/>
				<path class="st33" d="M209.35,332.77c0,0-39.92,9.86-51.67,11.75c-9.65,1.55-48.86,11.09-60.66,15.92"/>
			</g>
			<path class="st28" d="M492.52,291.14c-1.83,1.63-2,4.44-0.37,6.27l4.92,5.34c0.56,0.6,1.28,1.03,2.07,1.26l60.21,16.7
				c1.05,0.28,2.13,0.43,3.21,0.43h11.96c-0.62-0.41-1.26-0.8-1.92-1.15l-58.08-30.57c0,0,0,0,0,0c-1.47-0.72-2.07-2.5-1.34-3.97
				l-18.86,4.72C493.65,290.35,493.04,290.68,492.52,291.14z"/>
			<path class="st11" d="M266.36,329.62c-0.54,0.33-6.93,6.93-6.93,6.93l1.25,8.19l8.04-8.3L266.36,329.62z"/>
			<path class="st11" d="M275.99,346.71L275.99,346.71c-1.41,0.7-3.12,0.12-3.82-1.3l-12.75-25.84c-0.7-1.41-0.12-3.12,1.3-3.82l0,0
				c1.41-0.7,3.12-0.12,3.82,1.3l12.75,25.84C277.99,344.3,277.41,346.01,275.99,346.71z"/>
		</g>
		<g>
			<g>
				<path class="st34" d="M289.91,315.6c0,0,6.33,25.24,10.04,26.2c6.72,1.73,29.84-0.21,29.39-0.95l-0.98-11.61
					c0,0-23.3,3.86-23.12,3.45l-8.78-19.62L289.91,315.6z"/>
				<g>
					<g>
						<g>
							<g>
								<g>
									<g>
										<g>
											<path class="st34" d="M295.73,314.58c0,0,2.08-1.93,2.14-4.28c0.06-2.35,0.73-4.21,0.65-5.95
												c-0.08-1.75-1.54,0.11-2.12,1.25c-0.58,1.14-1.25,2.43-2.03,1.86c-0.79-0.57-4.22-8.23-5.41-8.9
												c-1.18-0.67-1.02,0.74-1.02,0.74s-0.88-1.84-1.71-1.68c-0.21,0.04-0.65,0.48-0.38,1.38c0.61,2.02,2.11,6.21,2.11,6.21
												c-0.08-0.24-2.3-5.27-2.73-5.98c-0.56-0.93-1.3-1.08-1.83-0.73c-0.75,0.49,1.79,6.82,1.71,7.16c0,0-1.34-3.69-2.48-3.87
												c-1.14-0.18-0.43,2.2,0.6,4.17c0.94,1.81,2.32,5.6,3.46,7.34c1.4,2.15,2.83,3.28,5.2,2.91
												C294.28,315.84,295.73,314.58,295.73,314.58z"/>
										</g>
									</g>
								</g>
							</g>
						</g>
					</g>
					<path class="st26" d="M288.1,299.52c0.67,1.49,1.27,3.01,1.81,4.55"/>
					<path class="st26" d="M285.59,307.1c1.63-1.34,3.66-2.19,5.76-2.41"/>
					<path class="st26" d="M293.84,308.37c-0.72,0.47-1.28,1.19-1.54,2.01c-0.26,0.82-0.22,1.73,0.1,2.53"/>
				</g>
			</g>
			<path class="st11" d="M355.92,327.49c-4.23-5.59-10.95-5.03-15.31-4.26l-8.65,1.43c-0.27,0.05-0.54,0.11-0.81,0.19l-1.97,0.61
				l-18.51,5.93l4.47,11.85l6.04-0.74l-1.01,1.63l5.94-0.38l0,0l32.38-1.69c0,0,0,0,0,0l0-6.57
				C358.48,332.62,357.65,329.78,355.92,327.49z"/>
			<g>
				<g>
					<g>
						<path class="st34" d="M354.16,336.81c0,0-4.06,27.23-6.94,30.11c-6.86,6.89-32.24-12.06-32.24-12.06l0.78-7.32l21.92,9.08
							l4.1-23.13L354.16,336.81z"/>
					</g>
					<path class="st11" d="M357.5,334.96c-0.2,0.67-1.95,19.66-1.95,19.66l-18.59-1.73c0,0,0.97-5.27,2.38-14.5
						c1.47-9.61,2.32-14.46,7.08-15.24C355.44,321.67,357.5,334.96,357.5,334.96z"/>
				</g>
				<g>
					<g>
						<path class="st11" d="M351.27,291.94c2.8,4.92,3.78,7.86,4.03,12.57c0.3,5.51,0.05,10.37-1.18,11.78
							c-1.61,1.85-19.05,3.59-28.82,3.19c-0.35-0.01-0.65-3.12-0.65-3.12s-1.39,3.03-1.84,3.01c-2.67-0.12-4.37-0.22-4.37-0.22
							s2.21-4.55,4.92-20.96c1.32-8.02,9.39-11.22,14.14-11.82C345.41,285.38,351.27,291.94,351.27,291.94z"/>
						<path class="st11" d="M328.03,307.42c-2.56-4.42-5.1-16.34,5.56-20.02c13.3-4.59,19.26,3.89,20.4,12.3
							c1.14,8.41-3.6,14.76-12.39,14.12C332.82,313.19,329.8,310.48,328.03,307.42z"/>
						<g>
							<g>
								<path class="st34" d="M346.5,308.02l-7.86,7.23l-1.51,1.61c0.42,1.14,0.77,2.31,0.89,3.43c0.24,1.98-0.99,3.47-0.99,3.47
									l-1.76,4.01c3.93-3.08,12.9-4.73,12.9-4.73C346.7,317.9,346.08,313.07,346.5,308.02z"/>
								<path class="st21" d="M338.06,320.73c2.12-1.13,4.49-3.15,4.33-5.59c-0.07-1.03-0.25-2.01-0.47-2.64l-4.45,5.36
									C337.77,318.76,337.87,319.36,338.06,320.73z"/>
								<path class="st34" d="M349,299.99c-1.06,7.68-1.35,10.95-5.52,14.81c-6.27,5.81-15.39,3.33-16.62-4.39
									c-1.11-6.95,0.82-18.34,8.54-21.23C343.02,286.33,350.07,292.31,349,299.99z"/>
								<path class="st11" d="M339.2,302.34c-0.08,0.77-0.59,1.39-1.13,1.38c-0.55-0.01-0.92-0.65-0.85-1.43
									c0.08-0.77,0.59-1.39,1.13-1.38C338.9,300.92,339.28,301.56,339.2,302.34z"/>
								<path class="st11" d="M331.19,301.83c-0.08,0.74-0.57,1.33-1.11,1.31c-0.54-0.01-0.91-0.62-0.83-1.36
									c0.08-0.74,0.57-1.33,1.11-1.31C330.9,300.47,331.27,301.09,331.19,301.83z"/>
								<path class="st11" d="M340.43,299.54c-0.11,0.02-0.22-0.01-0.3-0.07c-1.32-1.04-2.77-0.58-2.78-0.58
									c-0.21,0.07-0.44-0.03-0.49-0.23c-0.05-0.2,0.08-0.42,0.29-0.49c0.08-0.02,1.89-0.6,3.53,0.69
									c0.16,0.13,0.17,0.37,0.02,0.54C340.62,299.48,340.53,299.53,340.43,299.54z"/>
								<path class="st11" d="M328.64,297.95c-0.08-0.04-0.15-0.12-0.18-0.21c-0.06-0.19,0.07-0.4,0.27-0.46
									c2.08-0.6,3.44,0.46,3.49,0.51c0.16,0.13,0.18,0.36,0.03,0.51c-0.14,0.15-0.39,0.18-0.55,0.05
									c-0.05-0.04-1.12-0.85-2.77-0.37C328.83,298.01,328.72,298,328.64,297.95z"/>
								<path class="st11" d="M342.88,292.83c-2.57,2.46-1.8,12.25,5.03,13.85C355.93,305.18,350.56,285.48,342.88,292.83z"/>
								<path class="st11" d="M332.89,309.12c0.58,1,1.25,2.9,1.25,2.9c0.18-0.03,0.37-0.06,0.55-0.1c2.48-0.46,3.48-1.49,3.84-2.5
									c0.19-0.55,0.18-1.1,0.12-1.54c-0.07-0.51-0.23-0.85-0.23-0.85c-1.17,1.03-3.45,1.64-4.68,1.91
									C333.22,309.07,332.89,309.12,332.89,309.12z"/>
								<path class="st7" d="M333.73,308.95l0.39,0.85c2.34-0.44,3.92-1.06,4.52-1.91c-0.07-0.51-0.23-0.85-0.23-0.85
									C337.25,308.07,334.97,308.68,333.73,308.95z"/>
								<path class="st35" d="M334.69,311.93c2.48-0.46,3.48-1.49,3.84-2.5c-0.84,0.19-1.83,0.51-2.65,1.06
									C335.24,310.9,334.89,311.43,334.69,311.93z"/>
								<path class="st36" d="M333.38,301.38c0,0-1.61,3.41-3.21,5.04c0.94,1,2.73,0.58,2.73,0.58L333.38,301.38z"/>
							</g>
							<path class="st11" d="M336.84,300.47l1.75,0.5C337.74,301.84,336.84,300.47,336.84,300.47z"/>
							<path class="st11" d="M328.93,300.03l1.75,0.5C329.83,301.39,328.93,300.03,328.93,300.03z"/>
						</g>
						<path class="st11" d="M335.54,287.53c-3.09,0.89-6.57,6.01-7.21,8.02c4.3,0.91,16.16-2.61,16.16-2.61s7.69,2.51,3.93-1.62
							C344.66,287.18,335.54,287.53,335.54,287.53z"/>
						<path class="st34" d="M351.05,306.39c-0.98,1.54-2.51,2.46-3.88,2.74c-2.07,0.42-2.97-2.91-2.18-4.93
							c0.71-1.81,2.78-2.94,4.74-2.44C351.67,302.24,352.17,304.63,351.05,306.39z"/>
						<path class="st37" d="M324.53,296.78c-0.59,3.38-1.19,6.78-2.49,9.95c-1.29,3.17-3.98,9.72-6.92,11.49"/>
					</g>
					<path class="st0" d="M346.55,308.9c-0.04,0.79,0.58,1.47,1.37,1.51c0.79,0.04,1.47-0.58,1.51-1.37
						c0.04-0.79-0.58-1.47-1.37-1.51C347.26,307.49,346.59,308.1,346.55,308.9z"/>
					<path class="st38" d="M349.53,304.11c-0.67-0.22-1.44-0.12-2.03,0.27c-0.59,0.39-0.99,1.06-1.04,1.77"/>
				</g>
			</g>
			<path class="st34" d="M324.4,352.61l-8.62-5.07l-2.35-3.01c0,0-2.42-2.86-4.37-3.04c-1.4-0.13-2.84,0.59-2.84,0.59
				s-2.26,1.43-0.88,3.58c0,0-2.24,1.15-0.71,3.65c0,0-2.14,0.04-0.31,2.28s4,2.69,5.72,2.95c1.72,0.26,3.79-0.34,3.79-0.34
				l9.52,6.26L324.4,352.61z"/>
			<polyline points="338.59,343.12 340.15,333.37 335.4,343.23 338.59,343.12 			"/>
			<polygon points="321.17,342.49 325.05,334.61 317.6,342.93 			"/>
		</g>
	</g>
</g>
</svg>
